<svg xmlns="http://www.w3.org/2000/svg" viewBox="0 0 18.178 22.375"><defs><style>.a{fill:#fff}</style></defs><path class="a" d="M18.175 15.486v2.1a2.1 2.1 0 0 1-1.5 2.01V4.789A3.3 3.3 0 0 0 13.386 1.5H2.779A2.1 2.1 0 0 1 4.789 0h11.29a2.1 2.1 0 0 1 2.1 2.1v2.1z"/><path class="a" d="M15.485 18.175v2.1a2.1 2.1 0 0 1-2.1 2.1H2.1a2.1 2.1 0 0 1-2.1-2.1V4.789a2.1 2.1 0 0 1 2.1-2.1h11.29a2.1 2.1 0 0 1 2.1 2.1v13.386zM2.364 15.74h10.757v-1.2H2.364zm0-2.65h10.757v-1.2H2.364zm0-2.65h10.757v-1.2H2.364zm0 8.106h10.757v-1.2H2.364zm0-11.952v1.192h10.757v-1.2z"/></svg>