<svg xmlns="http://www.w3.org/2000/svg" viewBox="0 0 22 22"><defs><style>.a{fill:#fff}.b{fill:#5ca2b3}</style></defs><g transform="translate(-584 -617)"><circle class="a" cx="11" cy="11" r="11" transform="translate(584 617)"/><path class="b" d="M595.074 618.375a9.7 9.7 0 1 0 9.7 9.7 9.711 9.711 0 0 0-9.7-9.7zm0 17.8a8.1 8.1 0 1 1 8.1-8.1 8.11 8.11 0 0 1-8.1 8.1z"/><path class="b" d="M595.873 627.757v-5.493a.8.8 0 1 0-1.6 0v5.81a.794.794 0 0 0 .292.613c.008.009.013.019.02.028l3 3.4a.8.8 0 0 0 1.2-1.057z"/></g></svg>