<svg xmlns="http://www.w3.org/2000/svg" viewBox="0 0 81.36 91.96"><defs><style>.cls-1{fill:#1d1d1b;}.cls-2{fill:#fff;}</style></defs><title>Fichier 5</title><g id="Calque_2" data-name="Calque 2"><g id="Calque_1-2" data-name="Calque 1"><path class="cls-1" d="M22.38,19.24c.54-1.95,1.37-7.62,1.87-9.75S25.17,4.16,26,3s1.71-1.83,2.79-.71a43.28,43.28,0,0,1,4.71,5.41,35.21,35.21,0,0,1,3,5c2-.29,6.33-1.38,18.25-1.38a31,31,0,0,1,4.83-9.54C61.08-.52,61.75-.44,63,1.19s6.13,11,8.29,15.79c2.17,1.33,10.5,5.38,10,18.29S68.25,54.29,66.25,55c1.67,1.08,3.79,2.2,4.42,2.66a2.43,2.43,0,0,1,.83,3c-.43.86-2.37,2.54-5.87.54a9.71,9.71,0,0,1-4.2-4c0-.09-.17-.1-.38,0-1.29.23-6.06,1.41-7.17,1.41.46,2.79,2.66,20.13,2.91,22.21s.88,8.33.92,9.08-.08,1.5-1,1.59A136.93,136.93,0,0,1,42,91.9c-4.75-.33-9-1.42-10.25-2.08a3.89,3.89,0,0,0-2.67-.5c-.87,0-5.08.46-6.12.66s-11.25,2.71-16.29-1.2S-1.16,77.87.46,69.91s5.29-12.26,9.67-15.46,7.66-2,9.62-.25a6.12,6.12,0,0,1,.75,8.45C18.13,66,13.5,70.4,12.29,72S9.42,75.4,9.42,77.9a4.85,4.85,0,0,0,4.12,5.25,34.23,34.23,0,0,0,8.55,1c2.62,0,7.16-.42,9.33.42.75-3.46,1.71-12.13,2-16.34s1.17-10.94,1.17-10.94-5.05-.3-11.46-5-9.79-11.67-9.5-18,2.9-9.07,6.58-12.66C20.91,20.89,21.6,19.91,22.38,19.24Z"/><path class="cls-2" d="M44.42,14C60.79,12.74,67.09,15.16,71.25,18a17.39,17.39,0,0,1,7.5,11.45c.63,4.25,1.38,12.55-4.25,17.92S60.88,57.54,44,57.37c-12.53-.12-27.72-7.84-28.11-20.72-.38-12.42,7.71-16.71,9.46-17.71C27.88,17.46,33.89,14.73,44.42,14Z"/><path class="cls-1" d="M41.3,34.59c1.39,5,1.82,9.4,1.07,9.69s-3-2.54-4.38-7.57-1.37-10.06-.62-10.28S39.92,29.56,41.3,34.59Z"/><path class="cls-1" d="M65.34,30.65c1.38,5,1.81,9.41,1.06,9.69s-3-2.54-4.38-7.57-1.37-10.12-.62-10.31S64,25.59,65.34,30.65Z"/></g></g></svg>