<svg xmlns="http://www.w3.org/2000/svg" viewBox="0 0 22.162 22.162"><defs><style>.a{fill-rule:evenodd}</style></defs><path class="a" d="M11.081 1.97a33.977 33.977 0 0 1 4.433.123 5.711 5.711 0 0 1 2.093.369A4.324 4.324 0 0 1 19.7 4.556a5.711 5.711 0 0 1 .369 2.093c0 1.108.123 1.478.123 4.432a33.977 33.977 0 0 1-.123 4.433 5.711 5.711 0 0 1-.369 2.093 4.324 4.324 0 0 1-2.093 2.093 5.711 5.711 0 0 1-2.093.369c-1.108 0-1.477.123-4.432.123a33.977 33.977 0 0 1-4.432-.123 5.711 5.711 0 0 1-2.094-.369 4.324 4.324 0 0 1-2.093-2.093 5.711 5.711 0 0 1-.369-2.093c0-1.108-.123-1.477-.123-4.432a33.977 33.977 0 0 1 .123-4.432 5.711 5.711 0 0 1 .369-2.093 4.422 4.422 0 0 1 .862-1.231 2.082 2.082 0 0 1 1.231-.862 5.711 5.711 0 0 1 2.093-.369 33.977 33.977 0 0 1 4.432-.123m0-1.97a36.38 36.38 0 0 0-4.555.121 7.6 7.6 0 0 0-2.709.493 4.82 4.82 0 0 0-1.97 1.231 4.82 4.82 0 0 0-1.231 1.97 5.61 5.61 0 0 0-.493 2.709A36.38 36.38 0 0 0 0 11.081a36.38 36.38 0 0 0 .123 4.556 7.6 7.6 0 0 0 .493 2.709 4.82 4.82 0 0 0 1.231 1.97 4.82 4.82 0 0 0 1.97 1.231 7.6 7.6 0 0 0 2.709.493 36.38 36.38 0 0 0 4.556.123 36.38 36.38 0 0 0 4.556-.123 7.6 7.6 0 0 0 2.709-.493 5.166 5.166 0 0 0 3.2-3.2 7.6 7.6 0 0 0 .493-2.709c0-1.231.123-1.6.123-4.556a36.38 36.38 0 0 0-.123-4.556 7.6 7.6 0 0 0-.493-2.709 4.82 4.82 0 0 0-1.231-1.97 4.82 4.82 0 0 0-1.97-1.231 7.6 7.6 0 0 0-2.709-.493A36.38 36.38 0 0 0 11.081 0m0 5.418a5.573 5.573 0 0 0-5.664 5.664 5.664 5.664 0 1 0 5.664-5.664m0 9.358a3.628 3.628 0 0 1-3.694-3.694 3.628 3.628 0 0 1 3.694-3.694 3.628 3.628 0 0 1 3.694 3.694 3.628 3.628 0 0 1-3.694 3.694m5.91-10.958a1.354 1.354 0 1 0 1.354 1.354 1.366 1.366 0 0 0-1.354-1.354"/></svg>