<svg xmlns="http://www.w3.org/2000/svg" viewBox="0 0 303.31 103.36"><defs><style>.cls-1{fill:#1d1d1b;}.cls-2{fill:#fff;}</style></defs><title>Fichier 9</title><g id="Calque_2" data-name="Calque 2"><g id="Calque_1-2" data-name="Calque 1"><path class="cls-1" d="M22.39,30.59c.54-1.95,1.37-7.62,1.87-9.75s.92-5.33,1.71-6.54,1.71-1.83,2.79-.71A44.13,44.13,0,0,1,33.47,19a36.8,36.8,0,0,1,3,5c2-.29,6.33-1.38,18.25-1.38,1-3.91,3.29-7.29,4.83-9.54s2.21-2.17,3.5-.54,6.13,11,8.29,15.79c2.17,1.33,10.5,5.38,10,18.29S68.26,65.64,66.26,66.39c1.67,1.08,3.79,2.2,4.42,2.66a2.44,2.44,0,0,1,.83,3c-.43.86-2.37,2.54-5.87.54a9.61,9.61,0,0,1-4.2-4c0-.09-.17-.1-.38,0C59.77,68.82,55,70,53.89,70c.46,2.79,2.66,20.13,2.91,22.21s.88,8.33.92,9.08-.08,1.5-1,1.59a138.52,138.52,0,0,1-14.75.37c-4.75-.33-9-1.42-10.25-2.08a3.92,3.92,0,0,0-2.67-.5c-.87,0-5.08.46-6.12.66s-11.25,2.71-16.29-1.2S-1.15,89.22.47,81.26,5.76,69,10.14,65.8s7.66-2,9.62-.25A6.12,6.12,0,0,1,20.51,74c-2.37,3.37-7,7.75-8.21,9.33s-2.87,3.42-2.87,5.92,1,4.5,4.12,5.25a34.25,34.25,0,0,0,8.55,1c2.62,0,7.16-.42,9.33.42.75-3.46,1.71-12.13,2-16.34S34.6,68.64,34.6,68.64s-5.05-.3-11.46-5-9.79-11.67-9.5-18,2.9-9.07,6.58-12.66C20.92,32.24,21.61,31.26,22.39,30.59Z"/><path class="cls-2" d="M44.43,25.3c16.37-1.21,22.67,1.21,26.83,4.09a17.43,17.43,0,0,1,7.5,11.45c.63,4.25,1.38,12.55-4.25,17.92S60.89,68.89,44,68.72C31.47,68.6,16.28,60.88,15.89,48c-.38-12.42,7.71-16.71,9.46-17.71C27.89,28.81,33.9,26.08,44.43,25.3Z"/><path class="cls-1" d="M41.31,45.94c1.39,5,1.82,9.4,1.07,9.69s-3-2.54-4.38-7.57S36.63,38,37.38,37.78,39.93,40.91,41.31,45.94Z"/><path class="cls-1" d="M65.35,42c1.38,5,1.81,9.41,1.06,9.69s-3-2.54-4.38-7.57S60.66,34,61.41,33.81,64,36.94,65.35,42Z"/><polygon class="cls-1" points="90.38 36.44 91.74 36.44 91.74 30.83 97.31 30.83 97.31 29.61 91.74 29.61 91.74 24.93 98.28 24.93 98.28 23.71 90.38 23.71 90.38 36.44"/><polygon class="cls-1" points="100.75 36.44 108.66 36.44 108.66 35.23 102.11 35.23 102.11 30.63 107.69 30.63 107.69 29.42 102.11 29.42 102.11 24.93 108.66 24.93 108.66 23.71 100.75 23.71 100.75 36.44"/><path class="cls-1" d="M110.73,27.2a3,3,0,0,0,1,2.38,4.62,4.62,0,0,0,2.34,1l1.48.24a2.76,2.76,0,0,1,1.66.6,2,2,0,0,1,.61,1.6c0,1.48-1.14,2.35-3,2.35a4.36,4.36,0,0,1-3.47-1.39l-.93.93a5.54,5.54,0,0,0,4.36,1.68c2.65,0,4.4-1.38,4.4-3.61a3.17,3.17,0,0,0-1.07-2.52,4,4,0,0,0-2.32-.89l-1.4-.22a3.76,3.76,0,0,1-1.71-.69,1.85,1.85,0,0,1-.58-1.47c0-1.41,1-2.36,2.68-2.36a4,4,0,0,1,3,1.09l.88-.88a5.13,5.13,0,0,0-3.79-1.39C112.29,23.61,110.73,25,110.73,27.2Z"/><polygon class="cls-1" points="124.38 36.44 125.74 36.44 125.74 24.93 129.42 24.93 129.42 23.71 120.69 23.71 120.69 24.93 124.38 24.93 124.38 36.44"/><rect class="cls-1" x="131.8" y="23.72" width="1.36" height="12.73"/><polygon class="cls-1" points="140.44 36.44 144.62 23.71 143.19 23.71 139.88 34.01 136.58 23.71 135.15 23.71 139.33 36.44 140.44 36.44"/><path class="cls-1" d="M145.8,36.44l1-2.88h5.56l1,2.88h1.45l-4.67-12.72H149l-4.68,12.72Zm3.83-10.78L152,32.38h-4.76Z"/><polygon class="cls-1" points="164.78 35.23 158.27 35.23 158.27 23.71 156.91 23.71 156.91 36.44 164.78 36.44 164.78 35.23"/><rect class="cls-1" x="171.61" y="23.72" width="1.36" height="12.73"/><polygon class="cls-1" points="178.01 26.24 184.77 36.44 186.06 36.44 186.06 23.71 184.7 23.71 184.7 33.89 177.94 23.71 176.66 23.71 176.66 36.44 178.01 36.44 178.01 26.24"/><polygon class="cls-1" points="192.13 36.44 193.49 36.44 193.49 24.93 197.17 24.93 197.17 23.71 188.44 23.71 188.44 24.93 192.13 24.93 192.13 36.44"/><polygon class="cls-1" points="207.45 35.23 200.91 35.23 200.91 30.63 206.49 30.63 206.49 29.42 200.91 29.42 200.91 24.93 207.45 24.93 207.45 23.71 199.55 23.71 199.55 36.44 207.45 36.44 207.45 35.23"/><path class="cls-1" d="M216.16,30.67a3.3,3.3,0,0,0,2.77-3.41,3.44,3.44,0,0,0-3.77-3.54h-4.88V36.44h1.36V30.79h3.06l2.89,5.65h1.59Zm-4.52-1.07V24.93H215a2.34,2.34,0,1,1,0,4.67Z"/><polygon class="cls-1" points="223.37 26.24 230.13 36.44 231.41 36.44 231.41 23.71 230.06 23.71 230.06 33.89 223.3 23.71 222.01 23.71 222.01 36.44 223.37 36.44 223.37 26.24"/><path class="cls-1" d="M235.94,33.56h5.56l1,2.88H244l-4.66-12.72h-1.15l-4.68,12.72h1.45Zm2.81-7.9,2.36,6.72h-4.76Z"/><polygon class="cls-1" points="248.69 36.44 248.69 24.93 252.38 24.93 252.38 23.71 243.66 23.71 243.66 24.93 247.34 24.93 247.34 36.44 248.69 36.44"/><rect class="cls-1" x="254.76" y="23.72" width="1.36" height="12.73"/><path class="cls-1" d="M267,24.93a4.67,4.67,0,0,0-6.51,0c-1.2,1.2-1.2,2.45-1.2,5.15s0,4,1.2,5.15a4.67,4.67,0,0,0,6.51,0c1.19-1.2,1.19-2.45,1.19-5.15S268.22,26.13,267,24.93ZM266,34.42a3.11,3.11,0,0,1-4.4,0c-.8-.82-.89-1.68-.89-4.34s.09-3.52.89-4.34a3.09,3.09,0,0,1,4.4,0c.8.82.9,1.68.9,4.34S266.77,33.6,266,34.42Z"/><polygon class="cls-1" points="272.79 26.24 279.54 36.44 280.83 36.44 280.83 23.71 279.47 23.71 279.47 33.89 272.72 23.71 271.43 23.71 271.43 36.44 272.79 36.44 272.79 26.24"/><path class="cls-1" d="M287.58,23.72l-4.69,12.72h1.45l1-2.88h5.56l1,2.88h1.45l-4.67-12.72Zm-1.81,8.66,2.4-6.72,2.36,6.72Z"/><polygon class="cls-1" points="296.81 35.23 296.81 23.71 295.45 23.71 295.45 36.44 303.31 36.44 303.31 35.23 296.81 35.23"/><path class="cls-1" d="M98,46.36a4.44,4.44,0,0,0-3.22-1.18H90.38V57.91h4.36A4.48,4.48,0,0,0,98,56.73c1.32-1.33,1.25-3.56,1.25-5.33S99.28,47.68,98,46.36ZM97,55.76a3.31,3.31,0,0,1-2.5.93H91.74V46.39h2.77a3.31,3.31,0,0,1,2.5.93c.88.91.84,2.52.84,4.08S97.89,54.85,97,55.76Z"/><polygon class="cls-1" points="110.32 46.39 110.32 45.18 102.42 45.18 102.42 57.91 110.32 57.91 110.32 56.69 103.77 56.69 103.77 52.09 109.35 52.09 109.35 50.88 103.77 50.88 103.77 46.39 110.32 46.39"/><polygon class="cls-1" points="117.6 45.18 117.6 57.91 125.46 57.91 125.46 56.69 118.96 56.69 118.96 45.18 117.6 45.18"/><path class="cls-1" d="M127.67,57.91l1-2.88h5.56l1,2.88h1.44l-4.66-12.73H130.9l-4.68,12.73Zm3.82-10.78,2.36,6.72H129.1Z"/><path class="cls-1" d="M151.77,48.57c0-2.12-1.53-3.39-3.75-3.39h-4.79V57.91h5c2.25,0,3.79-1.22,3.79-3.53a3.08,3.08,0,0,0-2.07-3A2.91,2.91,0,0,0,151.77,48.57Zm-1.16,5.78a2.28,2.28,0,0,1-2.55,2.34h-3.47V52h3.47A2.27,2.27,0,0,1,150.61,54.35Zm-2.7-3.54h-3.32V46.39h3.32c1.41,0,2.5.68,2.5,2.2S149.32,50.81,147.91,50.81Z"/><path class="cls-1" d="M162.59,57.91H164l-4.66-12.73h-1.15l-4.68,12.73H155L156,55h5.55Zm-6.16-4.06,2.39-6.72,2.36,6.72Z"/><polygon class="cls-1" points="167.46 47.7 174.22 57.91 175.51 57.91 175.51 45.18 174.15 45.18 174.15 55.35 167.39 45.18 166.1 45.18 166.1 57.91 167.46 57.91 167.46 47.7"/><path class="cls-1" d="M179.2,45.18V57.91h4.36a4.5,4.5,0,0,0,3.22-1.18C188.1,55.4,188,53.17,188,51.4s.07-3.72-1.25-5a4.46,4.46,0,0,0-3.22-1.18Zm7.47,6.22c0,1.55,0,3.45-.84,4.36a3.31,3.31,0,0,1-2.51.93h-2.77V46.39h2.77a3.31,3.31,0,0,1,2.51.93C186.7,48.23,186.67,49.84,186.67,51.4Z"/><polygon class="cls-1" points="199.13 46.39 199.13 45.18 191.23 45.18 191.23 57.91 199.13 57.91 199.13 56.69 192.59 56.69 192.59 52.09 198.17 52.09 198.17 50.88 192.59 50.88 192.59 46.39 199.13 46.39"/><path class="cls-1" d="M214,46.36a4.46,4.46,0,0,0-3.22-1.18h-4.36V57.91h4.36A4.5,4.5,0,0,0,214,56.73c1.32-1.33,1.25-3.56,1.25-5.33S215.32,47.68,214,46.36Zm-.95,9.4a3.32,3.32,0,0,1-2.5.93h-2.78V46.39h2.78a3.32,3.32,0,0,1,2.5.93c.87.91.84,2.52.84,4.08S213.92,54.85,213.05,55.76Z"/><polygon class="cls-1" points="226.35 56.69 219.81 56.69 219.81 52.09 225.39 52.09 225.39 50.88 219.81 50.88 219.81 46.39 226.35 46.39 226.35 45.18 218.45 45.18 218.45 57.91 226.35 57.91 226.35 56.69"/><path class="cls-1" d="M228.43,48.66a3,3,0,0,0,1,2.38,4.62,4.62,0,0,0,2.34,1l1.48.24a2.7,2.7,0,0,1,1.66.61,2,2,0,0,1,.61,1.59c0,1.48-1.14,2.36-3,2.36A4.37,4.37,0,0,1,229,55.4l-.93.93A5.54,5.54,0,0,0,232.45,58c2.65,0,4.4-1.37,4.4-3.61a3.18,3.18,0,0,0-1.07-2.52,4.16,4.16,0,0,0-2.32-.89l-1.4-.22a3.54,3.54,0,0,1-1.72-.7,1.82,1.82,0,0,1-.57-1.46c0-1.41,1-2.36,2.68-2.36a4,4,0,0,1,3,1.09l.88-.88a5.13,5.13,0,0,0-3.79-1.39C230,45.07,228.43,46.5,228.43,48.66Z"/><path class="cls-1" d="M243.69,51l-1.4-.22a3.46,3.46,0,0,1-1.71-.7,1.79,1.79,0,0,1-.58-1.46c0-1.41,1-2.36,2.68-2.36a4,4,0,0,1,3,1.09l.88-.88a5.11,5.11,0,0,0-3.79-1.39c-2.52,0-4.08,1.43-4.08,3.59a3,3,0,0,0,1,2.38A4.62,4.62,0,0,0,242,52l1.48.24a2.7,2.7,0,0,1,1.66.61,2,2,0,0,1,.61,1.59c0,1.48-1.14,2.36-3,2.36a4.37,4.37,0,0,1-3.47-1.4l-.93.93A5.54,5.54,0,0,0,242.68,58c2.65,0,4.4-1.37,4.4-3.61A3.18,3.18,0,0,0,246,51.88,4.13,4.13,0,0,0,243.69,51Z"/><rect class="cls-1" x="249.93" y="45.18" width="1.36" height="12.73"/><polygon class="cls-1" points="263.02 55.35 256.26 45.18 254.97 45.18 254.97 57.91 256.33 57.91 256.33 47.7 263.09 57.91 264.38 57.91 264.38 45.18 263.02 45.18 263.02 55.35"/><polygon class="cls-1" points="268.07 57.91 275.97 57.91 275.97 56.69 269.42 56.69 269.42 52.09 275 52.09 275 50.88 269.42 50.88 269.42 46.39 275.97 46.39 275.97 45.18 268.07 45.18 268.07 57.91"/><polygon class="cls-1" points="274.05 41.21 272.51 41.21 270.94 43.94 272.12 43.94 274.05 41.21"/><polygon class="cls-1" points="278.79 57.91 286.7 57.91 286.7 56.69 280.15 56.69 280.15 52.09 285.73 52.09 285.73 50.88 280.15 50.88 280.15 46.39 286.7 46.39 286.7 45.18 278.79 45.18 278.79 57.91"/><path class="cls-1" d="M95.21,66.64H93.26L88.63,79.37h2.59L92,77.12h4.52l.75,2.25h2.59ZM92.68,75l1.61-4.63L95.85,75Z"/><polygon class="cls-1" points="108.69 74.43 103.65 66.64 101.43 66.64 101.43 79.37 103.92 79.37 103.92 71.56 108.96 79.37 111.17 79.37 111.17 66.64 108.69 66.64 108.69 74.43"/><path class="cls-1" d="M123.21,72.29H118.4v2.07h2.34v.48a2.48,2.48,0,0,1-.57,1.7,2.3,2.3,0,0,1-1.77.72,2,2,0,0,1-1.59-.66c-.5-.59-.61-1.1-.61-3.59s.15-3,.61-3.58a2,2,0,0,1,1.59-.68,2.16,2.16,0,0,1,2.29,1.86h2.5a4.56,4.56,0,0,0-4.79-4.08,4.66,4.66,0,0,0-3.43,1.4,3.69,3.69,0,0,0-1,1.91,17.73,17.73,0,0,0-.21,3.17,17.75,17.75,0,0,0,.21,3.16,3.76,3.76,0,0,0,1,1.91,4.65,4.65,0,0,0,3.43,1.39A4.79,4.79,0,0,0,122,78a5.12,5.12,0,0,0,1.21-3.88Z"/><path class="cls-1" d="M129.81,79.47a4.6,4.6,0,0,0,3.44-1.39c1.28-1.29,1.26-2.88,1.26-5.07s0-3.8-1.26-5.08a4.94,4.94,0,0,0-6.89,0c-1.28,1.28-1.25,2.87-1.25,5.08s0,3.78,1.25,5.07A4.62,4.62,0,0,0,129.81,79.47Zm-1.6-10a2.08,2.08,0,0,1,1.6-.68,2.11,2.11,0,0,1,1.6.68c.48.54.62,1.12.62,3.58s-.14,3-.62,3.57a2.11,2.11,0,0,1-1.6.68,2.08,2.08,0,0,1-1.6-.68c-.49-.54-.61-1.13-.61-3.57S127.72,70,128.21,69.43Z"/><path class="cls-1" d="M146.23,66.64h-2.47v8.28a2.21,2.21,0,1,1-4.41,0V66.64h-2.49V75a4.69,4.69,0,0,0,9.37,0Z"/><polygon class="cls-1" points="157.27 77.15 151.49 77.15 151.49 66.64 149.01 66.64 149.01 79.37 157.27 79.37 157.27 77.15"/><polygon class="cls-1" points="167.67 68.86 167.67 66.64 159.29 66.64 159.29 79.37 167.67 79.37 167.67 77.15 161.78 77.15 161.78 74.06 166.8 74.06 166.8 71.84 161.78 71.84 161.78 68.86 167.67 68.86"/><polygon class="cls-1" points="160.06 65.41 161.87 65.41 163.35 63.78 164.83 65.41 166.64 65.41 164.28 62.38 162.42 62.38 160.06 65.41"/><polygon class="cls-1" points="170.11 66.64 170.11 79.37 172.6 79.37 172.6 71.95 175.04 76.78 176.73 76.78 179.16 71.95 179.16 79.37 181.64 79.37 181.64 66.64 179.19 66.64 175.88 73.52 172.56 66.64 170.11 66.64"/><polygon class="cls-1" points="184.62 79.37 193 79.37 193 77.15 187.1 77.15 187.1 74.06 192.12 74.06 192.12 71.84 187.1 71.84 187.1 68.86 193 68.86 193 66.64 184.62 66.64 184.62 79.37"/><polygon class="cls-1" points="94.06 14.98 96.26 14.98 96.26 12.26 97.68 12.26 97.68 10.08 96.26 10.08 96.26 7.47 94.06 7.47 94.06 10.08 91.1 10.08 95.41 1.42 92.94 1.42 88.61 10.08 88.61 12.26 94.06 12.26 94.06 14.98"/><path class="cls-1" d="M111.44,7.53a2.86,2.86,0,0,0,2.28-.94l-.91-.89a1.66,1.66,0,0,1-1.36.56,1.23,1.23,0,0,1-1.31-1.33h3.75V4.26a2.58,2.58,0,0,0-2.61-2.87c-1.56,0-2.62,1.11-2.62,3.07C108.66,6.88,110,7.53,111.44,7.53Zm-1.16-4.27a1.12,1.12,0,0,1,2,0,1.67,1.67,0,0,1,.14.64h-2.28A1.5,1.5,0,0,1,110.28,3.26Z"/><path class="cls-1" d="M94.06,96.63c1.28-1.14,2.25-2.08,2.25-3.45a3.52,3.52,0,0,0-3.83-3.49,3.58,3.58,0,0,0-3.85,3.64h2.31a1.45,1.45,0,0,1,1.54-1.56A1.41,1.41,0,0,1,94,93.22c0,.67-.48,1.24-1.26,1.92l-4.14,3.53v2.07h7.94V98.67H91.77Z"/><polygon class="cls-1" points="112.67 94.21 114.36 95.86 112.67 97.51 112.67 100.26 117.09 95.86 112.67 91.46 112.67 94.21"/><path class="cls-1" d="M128,96.63c1.28-1.14,2.26-2.08,2.26-3.45a3.53,3.53,0,0,0-3.84-3.49,3.58,3.58,0,0,0-3.85,3.64h2.31a1.45,1.45,0,0,1,1.54-1.56A1.41,1.41,0,0,1,128,93.22c0,.67-.48,1.24-1.26,1.92l-4.13,3.53v2.07h7.93V98.67h-4.78Z"/><path class="cls-1" d="M150.89,96.48c0,1.46-.78,2.17-2,2.17a2,2,0,0,1-1.61-.71l-1.63,1.61a4.53,4.53,0,0,0,7.7-3V88.11h-2.47Z"/><path class="cls-1" d="M159.18,88.11l-4.59,12.63h2.57l.76-2.23h4.49l.74,2.23h2.58l-4.61-12.63Zm-.57,8.32,1.6-4.59,1.54,4.59Z"/><polygon class="cls-1" points="174.5 95.84 169.5 88.11 167.3 88.11 167.3 100.74 169.76 100.74 169.76 92.99 174.77 100.74 176.97 100.74 176.97 88.11 174.5 88.11 174.5 95.84"/><polygon class="cls-1" points="183.59 96.34 181.05 88.11 178.5 88.11 182.67 100.74 184.51 100.74 188.7 88.11 186.13 88.11 183.59 96.34"/><rect class="cls-1" x="190.23" y="88.11" width="2.47" height="12.63"/><polygon class="cls-1" points="195.65 100.74 203.97 100.74 203.97 98.54 198.11 98.54 198.11 95.47 203.1 95.47 203.1 93.27 198.11 93.27 198.11 90.31 203.97 90.31 203.97 88.11 195.65 88.11 195.65 100.74"/><path class="cls-1" d="M215.44,92a3.82,3.82,0,0,0-4.1-3.87h-5v12.63h2.46v-5h1.78l2.47,5H216l-2.82-5.44A3.42,3.42,0,0,0,215.44,92Zm-4.26,1.67h-2.33V90.31h2.33a1.67,1.67,0,1,1,0,3.34Z"/><path class="cls-1" d="M226.86,96.63c1.27-1.14,2.25-2.08,2.25-3.45a3.52,3.52,0,0,0-3.83-3.49,3.58,3.58,0,0,0-3.85,3.64h2.3a1.46,1.46,0,0,1,1.55-1.56,1.41,1.41,0,0,1,1.52,1.45c0,.67-.48,1.24-1.26,1.92l-4.13,3.53v2.07h7.93V98.67h-4.77Z"/><path class="cls-1" d="M235.2,90a3.65,3.65,0,0,0-3.85,3.77v3.28a3.85,3.85,0,0,0,7.7,0V93.81A3.65,3.65,0,0,0,235.2,90Zm1.54,7a1.55,1.55,0,1,1-3.08,0V93.84a1.55,1.55,0,1,1,3.08,0Z"/><polygon class="cls-1" points="240.97 92.39 240.97 94.87 243.56 92.64 243.56 100.74 245.87 100.74 245.87 90.15 243.56 90.15 240.97 92.39"/><path class="cls-1" d="M103.15,12.91a3.85,3.85,0,0,0,4.1-4.06c0-2.5-1.64-3.89-3.48-3.89a2.72,2.72,0,0,0-1.34.27l3-5.23H103l-2.73,4.91A7.62,7.62,0,0,0,99,8.9,3.82,3.82,0,0,0,103.15,12.91Zm0-6.08A1.85,1.85,0,0,1,105,8.89a1.83,1.83,0,1,1-3.64,0A1.83,1.83,0,0,1,103.13,6.83Z"/><polygon class="cls-1" points="105.73 95.46 103.56 95.46 103.56 98.04 100.63 98.04 104.89 89.47 102.45 89.47 98.17 98.04 98.17 100.2 103.56 100.2 103.56 102.89 105.73 102.89 105.73 100.2 107.14 100.2 107.14 98.04 105.73 98.04 105.73 95.46"/><polygon class="cls-1" points="132.33 94.16 134.53 94.16 134.53 92.18 138.23 92.18 133.57 102.78 136.05 102.78 140.71 92.18 140.71 90.1 132.33 90.1 132.33 94.16"/><path class="cls-1" d="M252.56,90.15a3.85,3.85,0,0,0-4.1,4.06c0,2.5,1.64,3.89,3.48,3.89a2.72,2.72,0,0,0,1.34-.27l-3,5.23h2.46l2.71-4.91a7.61,7.61,0,0,0,1.21-4A3.81,3.81,0,0,0,252.56,90.15Zm0,6.08a2.07,2.07,0,1,1,1.81-2A1.83,1.83,0,0,1,252.58,96.23Z"/></g></g></svg>