<svg xmlns="http://www.w3.org/2000/svg" viewBox="0 0 30.965 40.326"><defs><style>.a{fill:#e9e9e0}.b{fill:#d9d7ca}.c{fill:#cc4b4c}.d{fill:#fff}</style></defs><path class="a" d="M21.953 0H1.054C.472 0 0 .472 0 1.387v38.219a1.084 1.084 0 0 0 1.054.72h28.857a1.084 1.084 0 0 0 1.054-.72V9.346c0-.5-.067-.663-.185-.781L22.4.185A.636.636 0 0 0 21.953 0z"/><path class="b" d="M22.323.109v8.533h8.533z"/><path class="c" d="M9.371 23.997a1.156 1.156 0 0 1-.7-.235 1.726 1.726 0 0 1-.8-1.614c.131-1.172 1.581-2.4 4.31-3.65a48.338 48.338 0 0 0 2.728-7.741c-.719-1.564-1.417-3.593-.908-4.784a1.381 1.381 0 0 1 .817-.875 3.535 3.535 0 0 1 .732-.124c.363 0 .682.467.908.755.212.271.694.845-.269 4.9a23.011 23.011 0 0 0 3.664 5.445 14.01 14.01 0 0 1 2.418-.258c1.128 0 1.811.263 2.09.8a1.458 1.458 0 0 1-.281 1.555 1.914 1.914 0 0 1-1.6.858 4.787 4.787 0 0 1-3.032-1.645 34.5 34.5 0 0 0-6.357 2.032 20.432 20.432 0 0 1-1.716 3.061c-.737 1.038-1.373 1.52-2.004 1.52zm1.917-3.691c-1.539.865-2.166 1.576-2.211 1.976-.007.066-.027.241.31.5.108-.035.734-.321 1.901-2.476zm9.82-3.2c.587.452.73.68 1.114.68a1.086 1.086 0 0 0 .871-.318 1.14 1.14 0 0 0 .166-.3c-.089-.047-.206-.142-.846-.142a10.529 10.529 0 0 0-1.304.081zm-5.379-4.739a51.338 51.338 0 0 1-1.926 5.447 35.981 35.981 0 0 1 4.678-1.455 24.65 24.65 0 0 1-2.752-3.992zm-.437-6.094a1.727 1.727 0 0 0 .069 2.316c.683-1.522-.038-2.322-.069-2.315zm14.619 34.053H1.054A1.054 1.054 0 0 1 0 39.272V28.084h30.965v11.188a1.054 1.054 0 0 1-1.054 1.054z"/><path class="d" d="M7.839 38.166H6.657V30.91h2.087a2.929 2.929 0 0 1 .915.148 2.489 2.489 0 0 1 .812.443 2.313 2.313 0 0 1 .581.714 1.977 1.977 0 0 1 .222.94 2.573 2.573 0 0 1-.187 1 2.089 2.089 0 0 1-.522.753 2.352 2.352 0 0 1-.807.472 3.107 3.107 0 0 1-1.043.167h-.876v2.619zm0-6.36v2.875h1.083a1.287 1.287 0 0 0 .428-.074 1.079 1.079 0 0 0 .389-.241 1.179 1.179 0 0 0 .285-.467 2.214 2.214 0 0 0 .108-.743 2.01 2.01 0 0 0-.049-.408 1.179 1.179 0 0 0-.2-.443 1.193 1.193 0 0 0-.428-.354 1.592 1.592 0 0 0-.729-.143H7.84zm10.682 2.53a5.331 5.331 0 0 1-.192 1.531 3.806 3.806 0 0 1-.488 1.064 2.5 2.5 0 0 1-.665.675 3.334 3.334 0 0 1-.714.369 2.948 2.948 0 0 1-.63.158 4.2 4.2 0 0 1-.423.033h-2.746V30.91h2.186a4.153 4.153 0 0 1 1.609.29 3.342 3.342 0 0 1 1.152.773 3.172 3.172 0 0 1 .684 1.1 3.634 3.634 0 0 1 .227 1.263zm-3.5 2.963a1.956 1.956 0 0 0 1.733-.768 3.9 3.9 0 0 0 .531-2.225 3.769 3.769 0 0 0-.108-.9 1.916 1.916 0 0 0-.418-.8 2.208 2.208 0 0 0-.842-.581 3.625 3.625 0 0 0-1.378-.222h-.689v5.494h1.172zm6.415-5.493v2.28h3.032v.807h-3.032v3.273h-1.2V30.91h4.538v.9z"/></svg>