<svg xmlns="http://www.w3.org/2000/svg" viewBox="0 0 512 512"><path d="M229.322 189.02c-9.406 0-17.029 7.623-17.029 17.029v99.902c0 9.406 7.623 17.029 17.029 17.029s17.029-7.623 17.029-17.029v-99.902c-.001-9.406-7.624-17.029-17.029-17.029zm-52.79-52.789c-9.406 0-17.029 7.623-17.029 17.029v205.487c0 9.406 7.623 17.029 17.029 17.029s17.029-7.623 17.029-17.034V153.259c0-9.405-7.623-17.028-17.029-17.028zm-53.357-49.384c-9.406 0-17.029 7.623-17.029 17.029v304.248c0 9.406 7.623 17.029 17.029 17.029s17.029-7.623 17.029-17.029V103.876c0-9.406-7.623-17.029-17.029-17.029zm-52.789 49.384c-9.406 0-17.029 7.623-17.029 17.029v205.487c0 9.406 7.623 17.029 17.029 17.029s17.029-7.623 17.029-17.034V153.259c0-9.405-7.624-17.028-17.029-17.028zm-53.357 49.383C7.623 185.614 0 193.237 0 202.643v106.714c0 9.406 7.623 17.029 17.029 17.029s17.029-7.618 17.029-17.029V202.643c0-9.406-7.624-17.029-17.029-17.029zm371.796-98.767c-9.406 0-17.029 7.623-17.029 17.029v304.248c0 9.406 7.623 17.029 17.029 17.029s17.029-7.623 17.029-17.029V103.876c0-9.406-7.624-17.029-17.029-17.029zm-53.357 49.384c-9.406 0-17.029 7.623-17.029 17.029v205.487c0 9.406 7.623 17.029 17.029 17.029 9.406 0 17.029-7.623 17.029-17.034V153.259c0-9.405-7.624-17.028-17.029-17.028zm-52.789 26.678c-9.406 0-17.029 7.623-17.029 17.029v152.124c0 9.406 7.623 17.029 17.029 17.029 9.406 0 17.029-7.618 17.029-17.029V179.938c-.001-9.406-7.624-17.029-17.029-17.029zm158.935-26.678c-9.406 0-17.029 7.623-17.029 17.029v205.487c0 9.406 7.623 17.029 17.029 17.029s17.029-7.623 17.029-17.034V153.259c0-9.405-7.623-17.028-17.029-17.028zm53.357 49.383c-9.406 0-17.029 7.623-17.029 17.029v106.714c0 9.406 7.623 17.029 17.029 17.029 9.406 0 17.029-7.618 17.029-17.029V202.643c0-9.406-7.623-17.029-17.029-17.029z"/></svg>