<svg xmlns="http://www.w3.org/2000/svg" viewBox="0 0 22.162 17.977"><defs><style>.a{fill-rule:evenodd}</style></defs><path class="a" d="M7.018 17.976A12.813 12.813 0 0 0 19.946 5.048v-.616a10.008 10.008 0 0 0 2.216-2.339 10.221 10.221 0 0 1-2.586.739 4.79 4.79 0 0 0 1.97-2.463 11.293 11.293 0 0 1-2.832 1.108A4.4 4.4 0 0 0 15.391 0a4.626 4.626 0 0 0-4.556 4.556 2.4 2.4 0 0 0 .123.985 12.73 12.73 0 0 1-9.357-4.8A4.715 4.715 0 0 0 .985 3.08a4.892 4.892 0 0 0 1.97 3.817 4.151 4.151 0 0 1-2.093-.616 4.5 4.5 0 0 0 3.694 4.432 3.8 3.8 0 0 1-1.231.123 2.1 2.1 0 0 1-.862-.123 4.664 4.664 0 0 0 4.309 3.2 9.3 9.3 0 0 1-5.664 1.97A3.409 3.409 0 0 1 0 15.76a11.622 11.622 0 0 0 7.018 2.216"/></svg>