<?xml version="1.0" standalone="no"?>
<!DOCTYPE svg PUBLIC "-//W3C//DTD SVG 20010904//EN"
 "http://www.w3.org/TR/2001/REC-SVG-20010904/DTD/svg10.dtd">
<svg version="1.0" xmlns="http://www.w3.org/2000/svg"
 width="260.000000pt" height="260.000000pt" viewBox="0 0 260.000000 260.000000"
 preserveAspectRatio="xMidYMid meet">
<metadata>
Created by potrace 1.11, written by Peter Selinger 2001-2013
</metadata>
<g transform="translate(0.000000,260.000000) scale(0.100000,-0.100000)"
fill="#000000" stroke="none">
<path d="M1854 2592 c4 -6 -3 -16 -14 -22 -11 -6 -20 -18 -20 -28 0 -9 -12
-28 -25 -41 -14 -13 -25 -29 -25 -35 0 -7 -9 -21 -19 -30 -11 -10 -18 -28 -16
-42 1 -13 -2 -24 -7 -24 -6 0 -7 -7 -4 -16 4 -11 2 -15 -8 -11 -9 4 -12 0 -9
-13 3 -12 -2 -20 -16 -25 -12 -3 -21 -14 -21 -23 0 -10 -3 -13 -8 -7 -10 16
-54 17 -46 2 5 -8 3 -8 -7 1 -7 6 -17 12 -22 12 -4 0 -5 -6 -1 -12 6 -10 4
-10 -7 0 -15 14 -33 17 -25 4 6 -11 -25 -9 -42 2 -7 4 -18 3 -25 -2 -20 -17
-23 -17 -40 -3 -14 11 -17 11 -17 0 0 -11 -2 -11 -10 1 -7 11 -10 11 -10 2 0
-7 -4 -10 -10 -7 -5 3 -10 1 -10 -6 0 -7 -7 -4 -15 7 -14 18 -15 18 -9 0 6
-16 5 -17 -16 -6 -15 8 -20 8 -15 1 4 -8 -3 -10 -25 -6 -20 4 -29 2 -25 -5 3
-5 1 -10 -4 -10 -6 0 -11 6 -11 13 0 8 -4 7 -10 -3 -8 -12 -10 -12 -10 -1 0
11 -3 11 -15 1 -9 -7 -18 -10 -22 -7 -3 4 -12 2 -20 -4 -7 -6 -14 -9 -14 -5
-1 3 -3 11 -4 16 -1 6 -3 15 -4 20 0 6 -8 10 -16 10 -13 0 -14 4 -4 21 6 12 7
19 1 15 -5 -3 -18 4 -28 16 -11 12 -13 18 -5 13 10 -5 12 -4 7 3 -4 7 -15 12
-24 13 -11 0 -12 2 -4 6 8 3 2 14 -18 33 -16 15 -30 32 -30 38 0 5 -7 13 -16
16 -8 3 -12 10 -9 16 3 5 2 10 -4 10 -5 0 -29 19 -52 42 -24 24 -40 36 -37 27
5 -12 1 -15 -17 -11 -12 2 -26 -2 -30 -9 -6 -8 -4 -10 5 -4 8 5 11 3 8 -6 -3
-8 -10 -15 -16 -15 -23 -3 -24 -4 -12 -19 8 -10 9 -15 2 -15 -7 0 -9 -7 -5
-17 4 -10 2 -14 -5 -9 -6 3 -13 2 -16 -3 -4 -5 -1 -13 5 -17 8 -5 9 -3 4 6 -5
9 -4 11 3 6 9 -5 7 -15 -6 -34 -9 -14 -12 -23 -5 -19 13 8 12 -18 -2 -30 -4
-4 -5 -1 0 7 7 13 6 13 -6 1 -11 -11 -11 -14 -1 -18 10 -4 10 -8 0 -21 -10
-12 -10 -14 -1 -8 9 5 11 2 7 -8 -3 -9 -11 -13 -18 -9 -6 4 -4 -2 4 -12 9 -11
10 -16 3 -11 -17 9 -17 -6 0 -23 8 -10 8 -12 0 -7 -6 3 -14 2 -18 -4 -3 -5 -1
-10 6 -10 8 0 8 -4 -1 -15 -7 -8 -10 -26 -8 -40 4 -17 0 -29 -11 -35 -12 -7
-13 -9 -2 -10 11 0 9 -5 -5 -22 -10 -12 -13 -18 -5 -13 19 11 4 -36 -17 -52
-9 -7 -13 -13 -9 -13 5 0 2 -6 -5 -14 -7 -8 -17 -11 -22 -8 -5 3 -7 -2 -3 -11
3 -9 2 -16 -3 -14 -5 1 -16 -7 -25 -18 -9 -11 -13 -14 -9 -6 5 9 3 12 -4 7 -7
-4 -12 -12 -12 -17 0 -6 -11 -20 -25 -33 -14 -13 -25 -29 -25 -35 0 -7 -4 -9
-10 -6 -5 3 -10 -2 -10 -12 -1 -24 -25 -55 -36 -45 -4 4 -2 -2 6 -12 13 -17
13 -18 1 -11 -11 6 -13 4 -8 -8 3 -10 2 -17 -4 -17 -6 0 -8 -4 -4 -9 3 -5 1
-13 -5 -16 -6 -4 -8 -16 -4 -27 4 -13 2 -18 -4 -14 -6 3 -9 -2 -7 -11 1 -10
-2 -24 -8 -30 -6 -9 -6 -13 2 -13 8 0 9 -6 3 -17 -9 -17 -7 -61 3 -71 2 -2 0
-15 -6 -29 -6 -18 -6 -22 3 -17 7 5 9 2 5 -8 -3 -9 1 -27 8 -42 10 -19 11 -25
2 -20 -9 5 -9 3 1 -7 6 -7 12 -24 12 -39 0 -20 2 -22 11 -10 9 12 10 11 6 -7
-3 -13 -1 -23 4 -23 4 0 5 -8 2 -17 -5 -12 -2 -15 9 -10 12 4 14 1 11 -14 -3
-11 0 -19 6 -19 7 0 9 5 5 12 -4 7 -3 8 5 4 9 -6 9 -11 1 -21 -8 -10 -6 -15
10 -20 11 -3 18 -11 15 -16 -4 -5 -1 -9 4 -9 6 0 11 -5 11 -11 0 -15 26 -39
34 -32 3 4 6 0 6 -9 0 -15 70 -85 70 -71 0 5 6 1 13 -8 7 -9 22 -19 35 -23 12
-4 20 -12 17 -17 -3 -5 2 -6 11 -2 13 5 15 3 9 -7 -6 -10 -4 -12 8 -7 11 4 17
1 17 -7 0 -8 7 -17 16 -20 8 -3 12 -2 9 4 -3 6 1 7 10 4 9 -4 14 -12 11 -19
-2 -7 3 -12 12 -12 33 0 43 -3 38 -11 -3 -5 7 -8 22 -7 36 2 53 -5 45 -18 -4
-6 0 -8 9 -5 8 4 27 -1 41 -11 22 -14 24 -20 14 -31 -9 -10 -9 -11 1 -6 6 4
12 2 12 -3 0 -6 -5 -11 -12 -11 -9 0 -9 -3 0 -12 9 -9 8 -16 -5 -30 -16 -18
-16 -19 3 -13 19 7 19 6 0 -9 -14 -11 -15 -16 -6 -16 9 0 8 -5 -6 -16 -10 -8
-14 -13 -7 -10 6 4 14 2 18 -4 3 -5 1 -10 -5 -10 -6 0 -9 -4 -5 -9 3 -5 1 -12
-5 -16 -13 -8 -13 -25 1 -25 5 0 7 5 3 12 -5 7 -3 8 5 4 9 -6 8 -13 -6 -29
-12 -14 -13 -18 -3 -12 12 7 13 6 3 -6 -10 -12 -10 -18 0 -29 9 -10 9 -11 0
-6 -9 5 -12 -3 -11 -29 1 -19 6 -35 12 -35 5 0 2 -6 -9 -13 -14 -11 -15 -16
-5 -22 10 -6 9 -9 -1 -16 -12 -7 -11 -9 0 -9 11 0 10 -4 -5 -16 -10 -8 -13
-13 -6 -9 16 8 16 -7 -1 -24 -9 -11 -9 -13 1 -7 16 9 16 -6 -1 -23 -10 -11 -9
-12 3 -6 13 8 13 7 1 -8 -11 -14 -11 -17 0 -17 11 0 11 -2 -1 -10 -11 -7 -12
-10 -2 -10 10 0 9 -5 -4 -17 -9 -9 -13 -18 -8 -20 12 -4 5 -83 -7 -83 -5 0 -9
-5 -9 -11 0 -5 6 -7 13 -3 9 6 9 5 0 -7 -6 -8 -13 -27 -15 -42 -1 -15 -7 -27
-12 -26 -5 0 -13 -5 -17 -13 -7 -10 -9 -10 -9 0 0 6 -5 12 -11 12 -5 0 -7 -6
-3 -12 6 -11 4 -11 -7 0 -16 14 -33 16 -24 2 3 -6 -1 -7 -9 -4 -9 3 -14 9 -11
13 2 4 -2 8 -10 8 -8 0 -12 -4 -9 -9 3 -4 0 -8 -5 -8 -6 0 -11 6 -11 13 0 8
-3 8 -8 1 -4 -6 -35 -10 -69 -9 -41 1 -60 -2 -55 -9 3 -6 -5 -4 -19 5 -18 13
-30 14 -43 7 -14 -8 -21 -7 -27 3 -8 12 -11 12 -19 -1 -9 -13 -11 -13 -20 0
-9 13 -10 13 -10 0 0 -13 -2 -13 -9 -1 -5 8 -16 11 -25 8 -9 -4 -16 -2 -16 3
0 6 -5 10 -11 10 -5 0 -7 -5 -4 -10 4 -6 -5 -5 -19 2 -14 6 -26 15 -26 20 0 5
-4 7 -9 4 -5 -3 -22 1 -37 9 -16 8 -25 15 -21 15 5 0 2 7 -7 15 -8 8 -19 15
-24 15 -5 0 -8 14 -7 30 1 17 -2 33 -7 36 -4 3 -3 14 2 25 6 11 9 23 6 27 -3
5 1 20 9 35 7 14 10 28 7 32 -4 3 2 3 11 -1 10 -3 17 -3 15 2 -4 15 13 54 23
54 6 0 7 5 3 12 -5 8 -2 9 9 5 10 -4 17 -2 17 5 0 6 13 23 28 38 16 15 32 35
35 44 4 9 18 21 32 26 28 11 35 22 7 14 -14 -5 -14 -4 2 6 35 23 55 44 50 52
-3 5 0 7 7 6 7 -2 13 2 14 9 0 7 9 19 20 27 15 12 16 15 5 16 -13 0 -13 2 0 9
8 6 17 8 21 5 4 -2 5 6 1 18 -3 14 -1 19 6 14 6 -3 14 -1 18 5 4 7 3 9 -4 5
-6 -4 -10 1 -9 13 0 11 5 17 11 14 5 -4 7 1 3 10 -4 10 -1 17 6 17 8 0 8 3 -2
9 -10 7 -10 10 -1 13 9 3 8 8 -4 20 -12 12 -13 18 -3 21 9 4 9 6 -1 6 -7 1
-10 6 -7 11 3 6 -1 10 -11 10 -13 0 -14 3 -5 13 12 15 -7 38 -42 50 -10 4 -15
11 -12 17 3 6 -1 7 -9 4 -9 -3 -16 -1 -16 6 0 6 -5 8 -10 5 -6 -4 -21 0 -33 7
-23 15 -61 13 -52 -2 3 -5 -7 -8 -22 -7 -20 1 -27 -2 -25 -13 3 -12 1 -12 -9
-3 -10 10 -15 9 -26 -5 -8 -9 -11 -11 -7 -3 4 8 -14 0 -39 -18 -26 -18 -47
-37 -47 -42 0 -6 -4 -7 -10 -4 -5 3 -10 1 -10 -4 0 -6 -7 -11 -15 -11 -8 0
-15 -9 -15 -21 0 -11 -4 -18 -9 -14 -12 7 -33 -30 -23 -40 4 -3 0 -5 -8 -3 -9
2 -14 -4 -14 -14 1 -10 -4 -18 -12 -18 -7 0 -16 -5 -20 -12 -5 -7 -2 -8 7 -3
8 4 1 -6 -15 -23 -17 -18 -26 -32 -22 -32 5 0 3 -7 -4 -15 -7 -9 -10 -18 -7
-22 4 -3 -1 -12 -11 -20 -10 -9 -11 -11 -2 -7 12 7 13 5 3 -8 -7 -8 -10 -18
-6 -21 3 -4 1 -7 -5 -7 -7 0 -12 -5 -12 -11 0 -5 6 -7 12 -3 8 4 6 -1 -2 -12
-9 -10 -17 -32 -19 -49 -2 -16 -8 -33 -15 -37 -8 -6 -7 -11 4 -18 10 -6 11
-10 3 -10 -18 0 -18 -151 0 -169 9 -11 9 -13 -1 -7 -6 4 -12 3 -12 -3 0 -5 6
-12 13 -14 8 -4 8 -6 -2 -6 -11 -1 -10 -5 5 -16 11 -8 14 -14 6 -15 -9 0 -7
-8 5 -27 10 -15 12 -24 5 -20 -6 5 -12 4 -12 -2 0 -6 6 -11 14 -11 10 0 13 -7
11 -20 -2 -11 0 -18 4 -15 5 3 12 -2 15 -11 3 -8 2 -12 -4 -9 -6 3 -7 -1 -4
-9 3 -9 10 -13 15 -10 5 3 9 -4 9 -16 0 -14 4 -19 12 -14 8 5 9 2 5 -10 -4 -9
-3 -14 2 -11 5 3 12 -4 16 -15 4 -11 10 -18 15 -15 8 5 25 -24 21 -38 -1 -5 3
-6 8 -2 6 3 19 -3 29 -13 10 -10 28 -18 40 -17 12 1 20 -1 17 -3 -3 -3 0 -11
6 -19 10 -11 15 -11 27 -1 10 8 13 9 9 2 -4 -7 0 -15 9 -18 10 -4 13 -2 8 7
-5 9 -4 9 7 0 16 -15 33 -17 24 -3 -3 6 1 7 9 4 9 -3 14 -9 11 -13 -2 -4 2 -8
10 -8 8 0 15 3 15 7 0 11 34 8 43 -4 5 -8 10 -6 17 4 9 13 11 13 20 0 9 -13
10 -13 10 0 0 13 1 13 11 0 8 -11 12 -12 16 -2 2 6 11 12 19 12 9 0 13 -4 10
-8 -3 -5 1 -9 8 -9 9 0 12 7 8 16 -5 14 -3 14 11 2 12 -9 17 -10 17 -2 0 8 5
9 19 1 15 -7 23 -6 34 4 11 11 17 12 27 3 10 -9 11 -9 5 2 -6 11 -4 13 8 8 10
-4 17 -2 17 5 0 6 6 5 17 -3 9 -8 14 -9 10 -3 -4 7 0 15 9 18 8 3 12 2 9 -4
-9 -14 8 -12 24 2 11 11 12 10 6 -2 -8 -13 -6 -13 7 -2 11 9 17 9 20 2 2 -6
11 -8 21 -5 9 4 15 10 12 15 -2 4 7 5 21 2 15 -3 21 -8 15 -12 -7 -4 2 -7 19
-7 18 0 36 -6 41 -14 7 -12 9 -12 9 1 0 12 2 12 9 2 4 -7 18 -14 29 -15 12 -1
22 -5 22 -9 0 -4 5 -8 11 -8 5 0 7 4 4 10 -3 6 1 7 9 4 9 -3 13 -11 9 -18 -4
-6 1 -5 10 3 9 7 17 9 17 3 0 -6 105 -9 296 -9 282 0 295 1 291 19 -3 11 -1
16 6 11 6 -4 8 0 4 9 -3 9 -1 20 5 26 8 8 5 14 -13 21 -13 5 -19 10 -12 10 12
1 10 31 -3 53 -4 7 -3 8 4 4 7 -4 12 -2 12 3 0 6 -6 11 -12 11 -10 0 -10 2 0
9 10 6 10 10 -1 19 -14 12 -15 51 -1 73 4 8 3 9 -4 5 -16 -10 -15 7 1 23 10
11 9 12 -2 6 -9 -5 -12 -3 -9 6 3 8 1 22 -4 33 -7 13 -7 16 1 12 8 -5 8 0 2
17 -6 14 -7 28 -4 31 4 3 1 6 -5 6 -7 0 -12 5 -12 11 0 5 4 8 8 5 4 -2 8 4 8
14 0 10 -4 16 -9 13 -4 -2 -5 8 -1 23 5 19 4 25 -5 20 -6 -4 -11 -2 -11 3 0 6
3 11 8 11 4 0 7 11 7 24 0 13 -3 22 -7 20 -4 -2 -9 0 -13 6 -3 5 1 10 9 10 9
0 16 5 16 10 0 6 -3 9 -7 9 -20 -3 -24 2 -14 15 9 10 9 16 1 21 -8 5 -7 11 2
23 11 13 11 14 -1 7 -11 -6 -13 -4 -8 8 4 10 1 17 -6 17 -7 0 -8 3 -2 8 13 9
16 44 4 36 -6 -3 -8 6 -5 20 3 14 1 26 -3 26 -3 0 -7 9 -8 20 -1 13 2 18 10
13 7 -4 7 -1 -1 10 -8 9 -11 21 -7 27 3 5 2 10 -4 10 -6 0 -8 7 -4 16 3 9 0
20 -8 25 -12 7 -12 9 1 9 12 0 13 2 1 9 -17 11 -4 34 16 27 8 -3 12 -2 9 3 -3
5 1 11 8 14 8 3 17 1 20 -6 3 -9 5 -8 5 1 1 7 6 10 11 7 6 -4 18 -1 27 7 9 7
14 8 10 2 -3 -6 1 -11 9 -11 8 0 13 6 10 13 -3 7 2 10 14 7 10 -3 21 0 24 6
10 15 66 -15 66 -35 0 -8 5 -12 10 -9 6 3 10 1 10 -5 0 -14 25 -40 39 -40 6 0
11 -4 11 -10 0 -5 7 -10 16 -10 9 0 12 -5 8 -12 -5 -7 -3 -8 5 -4 7 5 21 0 33
-11 12 -10 18 -12 14 -5 -4 6 -2 12 3 12 6 0 11 -4 11 -10 0 -5 7 -10 16 -10
9 0 12 5 8 12 -5 9 -2 9 9 -1 13 -10 17 -10 17 -1 0 10 3 10 15 0 13 -11 14
-10 9 5 -5 13 -4 16 4 11 7 -4 12 -2 12 4 0 6 5 8 10 5 6 -4 10 -3 9 2 -1 4 0
13 1 18 8 36 -5 65 -29 65 -6 0 -11 9 -11 20 0 18 -3 19 -20 10 -16 -9 -19 -8
-13 6 4 12 3 15 -5 10 -7 -4 -12 -2 -12 4 0 6 -4 8 -10 5 -5 -3 -10 -1 -10 6
0 7 -3 10 -6 6 -4 -3 -13 1 -21 9 -9 8 -13 18 -9 21 3 4 6 3 6 0 0 -4 9 2 20
13 22 22 45 27 35 8 -4 -7 -1 -6 7 3 7 8 21 18 31 22 11 4 15 12 11 18 -4 8
-3 9 5 5 6 -4 19 1 29 11 9 11 13 12 8 3 -6 -8 9 5 32 28 23 24 42 40 43 35 0
-4 4 2 10 15 5 13 13 20 19 17 9 -6 14 8 11 28 0 4 6 7 14 7 14 0 20 12 16 33
-1 5 3 6 9 2 5 -3 10 -2 10 2 0 5 13 23 29 41 18 19 28 40 26 51 -2 11 3 22
13 26 14 5 14 7 2 15 -9 6 -10 10 -3 10 6 0 10 13 9 29 -1 19 2 27 10 24 8 -3
12 32 12 132 1 84 -3 133 -8 130 -6 -4 -10 -2 -10 4 0 5 6 12 13 14 10 4 10 6
0 6 -7 1 -13 9 -13 19 0 9 -7 25 -14 35 -8 10 -11 27 -8 39 3 13 1 19 -5 15
-6 -4 -14 0 -17 9 -3 8 -2 12 4 9 6 -3 7 1 4 9 -3 9 -10 16 -14 16 -4 0 -13
14 -20 30 -7 17 -18 30 -26 30 -7 0 -16 5 -20 12 -5 7 -3 8 6 3 9 -5 11 -4 6
3 -4 7 -12 12 -18 12 -6 0 -25 15 -42 34 -17 19 -37 36 -45 38 -22 5 -61 40
-55 50 3 4 -2 8 -12 8 -11 0 -15 6 -11 20 3 11 1 18 -4 14 -5 -3 -9 2 -9 10 0
9 -6 16 -12 16 -9 0 -8 4 2 10 11 7 11 10 2 10 -7 0 -10 5 -7 10 3 6 1 10 -6
10 -7 0 -10 3 -6 6 3 4 -1 13 -9 21 -8 8 -12 19 -9 24 4 5 1 9 -4 9 -6 0 -11
7 -11 15 0 8 -4 15 -8 15 -5 0 -9 7 -10 15 -1 8 -3 22 -4 30 -1 8 -6 11 -11 8
-6 -4 -8 0 -4 10 4 10 2 16 -4 14 -6 -1 -13 9 -15 23 -2 14 -14 33 -25 43 -12
9 -16 17 -10 17 8 0 8 4 -1 14 -7 8 -15 12 -18 11 -3 -2 -7 5 -7 16 -1 10 -8
26 -16 33 -18 18 -93 34 -83 18z m-94 -172 c0 -5 -5 -10 -11 -10 -5 0 -7 5 -4
10 3 6 8 10 11 10 2 0 4 -4 4 -10z m-56 -128 c3 -5 -1 -9 -9 -9 -8 0 -12 4 -9
9 3 4 7 8 9 8 2 0 6 -4 9 -8z m690 -927 c-4 -8 -11 -15 -16 -15 -6 0 -5 6 2
15 7 8 14 15 16 15 2 0 1 -7 -2 -15z m-1260 -383 c3 -5 -1 -9 -9 -9 -8 0 -12
4 -9 9 3 4 7 8 9 8 2 0 6 -4 9 -8z"/>
<path d="M1765 220 c-3 -5 -1 -10 4 -10 6 0 11 5 11 10 0 6 -2 10 -4 10 -3 0
-8 -4 -11 -10z"/>
</g>
</svg>
