<svg xmlns="http://www.w3.org/2000/svg" xmlns:xlink="http://www.w3.org/1999/xlink" viewBox="0 0 511.48 167.31"><defs><style>.cls-1{fill:none;}.cls-2{fill:#221f20;}.cls-3{clip-path:url(#clip-path);}.cls-4{fill:url(#linear-gradient);}.cls-5{fill:url(#linear-gradient-2);}.cls-6{fill:url(#linear-gradient-3);}.cls-7{fill:url(#linear-gradient-4);}.cls-8{fill:#f9f9f9;}.cls-9{fill:#fff;}</style><clipPath id="clip-path"><path class="cls-1" d="M110.84,73.65,87.78,60.33,43.3,34.64c-2.47-1.42-4.94-.56-4.94,2.42V141.71c0,2.24,1.76,3.2,3.91,2l45.51-26.28,23.06-13.31L133,91.28c2.6-1.5,2.35-3.56.16-4.74S110.84,73.65,110.84,73.65Z"/></clipPath><linearGradient id="linear-gradient" x1="66.93" y1="32.21" x2="66.93" y2="145.51" gradientUnits="userSpaceOnUse"><stop offset="0" stop-color="#3f7bab"/><stop offset="0.12" stop-color="#4b86ae"/><stop offset="0.71" stop-color="#82b9b9"/><stop offset="1" stop-color="#98cdbe"/></linearGradient><linearGradient id="linear-gradient-2" x1="38.36" y1="60.33" x2="110.84" y2="60.33" gradientUnits="userSpaceOnUse"><stop offset="0" stop-color="#6fbead"/><stop offset="1" stop-color="#e0e7a2"/></linearGradient><linearGradient id="linear-gradient-3" x1="74.6" y1="88.86" x2="74.6" y2="145.93" gradientUnits="userSpaceOnUse"><stop offset="0" stop-color="#db4f46"/><stop offset="0.12" stop-color="#cf4f51"/><stop offset="0.71" stop-color="#984f84"/><stop offset="1" stop-color="#824f98"/></linearGradient><linearGradient id="linear-gradient-4" x1="116.35" y1="73.65" x2="116.35" y2="104.08" gradientUnits="userSpaceOnUse"><stop offset="0" stop-color="#e78d7e"/><stop offset="0.6" stop-color="#f1b380"/><stop offset="1" stop-color="#f6c981"/></linearGradient></defs><title>Fichier 2</title><g id="Calque_2" data-name="Calque 2"><g id="Layer_1" data-name="Layer 1"><path class="cls-2" d="M511.48,144.7a22.61,22.61,0,0,1-22.61,22.61H22.61A22.61,22.61,0,0,1,0,144.7V22.61A22.61,22.61,0,0,1,22.61,0H488.87a22.61,22.61,0,0,1,22.61,22.61Z"/><g id="PLAY"><g class="cls-3"><polygon class="cls-4" points="38.37 32.21 38.37 88.86 38.37 145.51 95.5 88.86 38.37 32.21"/><polygon class="cls-5" points="110.84 73.65 87.78 60.33 38.37 31.8 38.37 32.21 95.5 88.86 110.84 73.65"/><polygon class="cls-6" points="38.37 145.51 38.37 145.93 87.78 117.39 110.84 104.08 95.5 88.86 38.37 145.51"/><polygon class="cls-7" points="110.84 73.65 95.5 88.86 110.84 104.08 137.2 88.86 110.84 73.65"/></g></g><path class="cls-8" d="M398.06,111a14.11,14.11,0,0,1-5.88-1.19,11.06,11.06,0,0,1-4.46-3.65h-.37a42.59,42.59,0,0,1,.37,5.47V125.2h-5V77.46h4l.7,4.51h.24a11.47,11.47,0,0,1,4.48-3.91,13.6,13.6,0,0,1,5.86-1.2q6.56,0,10.12,4.48t3.56,12.56q0,8.13-3.62,12.62A12.23,12.23,0,0,1,398.06,111Zm-.72-29.91q-5.05,0-7.31,2.79c-1.5,1.87-2.27,4.83-2.31,8.9V93.9q0,7,2.31,9.94c1.55,2,4,3,7.43,3a7.74,7.74,0,0,0,6.69-3.45q2.42-3.47,2.42-9.54c0-4.1-.81-7.26-2.42-9.45A8,8,0,0,0,397.34,81.1Z"/><path class="cls-8" d="M423.29,110.41h-5V63.63h5Z"/><path class="cls-8" d="M452,110.41l-1-4.69h-.24a13.76,13.76,0,0,1-4.91,4.19,14.89,14.89,0,0,1-6.12,1.1q-4.91,0-7.68-2.52c-1.86-1.69-2.78-4.08-2.78-7.19q0-10,16-10.46l5.59-.18v-2c0-2.58-.55-4.49-1.67-5.72S446.25,81,443.81,81a21.74,21.74,0,0,0-9.32,2.52L433,79.74a23.71,23.71,0,0,1,5.34-2.07,23.18,23.18,0,0,1,5.82-.75q5.89,0,8.73,2.61c1.9,1.75,2.84,4.54,2.84,8.39v22.49Zm-11.28-3.52a10.13,10.13,0,0,0,7.32-2.55,9.45,9.45,0,0,0,2.66-7.16v-3l-5,.2c-4,.15-6.83.76-8.58,1.86a5.56,5.56,0,0,0-2.63,5.09,5.12,5.12,0,0,0,1.64,4.12A6.8,6.8,0,0,0,440.71,106.89Z"/><path class="cls-8" d="M458.58,77.46h5.35l7.22,18.79a71.82,71.82,0,0,1,2.94,9.29h.24c.27-1,.81-2.77,1.64-5.25s3.56-10.08,8.16-22.83h5.36L475.33,115q-2.11,5.56-4.92,7.89a10.42,10.42,0,0,1-6.9,2.33,20.12,20.12,0,0,1-4.51-.51v-4a17.46,17.46,0,0,0,3.7.36q5.15,0,7.33-5.77l1.84-4.69Z"/><path class="cls-8" d="M305.61,80.52a11.64,11.64,0,0,1,4.89,9.31c0,5.09-2.89,7.51-5.79,9.78-.9.9-1.93,1.86-1.93,3.38a3.78,3.78,0,0,0,1.79,3l2.49,1.93c3,2.55,5.78,4.9,5.78,9.65,0,6.48-6.27,13-18.12,13-10,0-14.82-4.76-14.82-9.86,0-2.48,1.24-6,5.31-8.41,4.27-2.62,10.06-3,13.16-3.17-1-1.24-2.07-2.55-2.07-4.68a6.26,6.26,0,0,1,.69-2.69c-.76.07-1.51.13-2.21.13-7.3,0-11.43-5.44-11.43-10.81a12.41,12.41,0,0,1,4.41-9.24c3.93-3.24,8.61-3.79,12.34-3.79h14.19l-4.41,2.48Zm-4.9,30.6a10.92,10.92,0,0,0-1.58-.07,27.47,27.47,0,0,0-7.24,1.11c-1.51.55-5.92,2.2-5.92,7.1s4.75,8.41,12.13,8.41c6.61,0,10.13-3.18,10.13-7.45C308.23,116.7,306,114.85,300.71,111.12Zm2-13.09a7,7,0,0,0,1.72-5c0-5-3-12.68-8.68-12.68a6.43,6.43,0,0,0-4.82,2.28,8,8,0,0,0-1.52,5.1c0,4.62,2.69,12.27,8.62,12.27A7,7,0,0,0,302.71,98Z"/><path class="cls-8" d="M262.22,110a16.24,16.24,0,0,1-16.79-16.24c0-9,7.36-16.72,17.83-16.72A16.09,16.09,0,0,1,279.7,93.3C279.7,101.42,273.44,110,262.22,110Zm8.6-5.57a12.5,12.5,0,0,0,2.07-7.64c0-6.06-2.89-17.62-11.43-17.62a9.57,9.57,0,0,0-6.19,2.35c-2.68,2.4-3.17,5.43-3.17,8.39,0,6.81,3.38,18,11.71,18A8.78,8.78,0,0,0,270.82,104.45Z"/><path class="cls-8" d="M224.93,110c-11,0-16.8-8.53-16.8-16.24,0-9,7.37-16.72,17.83-16.72A16.09,16.09,0,0,1,242.4,93.3C242.4,101.42,236.14,110,224.93,110Zm8.6-5.57a12.49,12.49,0,0,0,2.06-7.64c0-6.06-2.89-17.62-11.42-17.62A9.57,9.57,0,0,0,218,81.54c-2.69,2.4-3.17,5.43-3.17,8.39,0,6.81,3.37,18,11.7,18A8.81,8.81,0,0,0,233.53,104.45Z"/><path class="cls-8" d="M202.88,108.94l-9.9,2.28a72.58,72.58,0,0,1-11.41,1.18c-19.09,0-26.36-14.05-26.36-25.05,0-13.42,10.31-25.86,27.95-25.86a39.9,39.9,0,0,1,10.59,1.45,27,27,0,0,1,9.13,4.29l-5.75,5.46-2.42.55,1.73-2.77c-2.35-2.28-6.64-6.5-14.8-6.5-10.93,0-19.16,8.31-19.16,20.41,0,13,9.41,25.25,24.48,25.25a20.63,20.63,0,0,0,8.79-1.73V96.77l-10.44.55,5.53-3h14.67l-1.8,1.73a1.59,1.59,0,0,0-.69,1.1c-.08.63-.14,2.64-.14,3.33Z"/><path class="cls-8" d="M327.47,107c-2.28-.21-2.76-.62-2.76-3.32V64.47c0-.15,0-.3,0-.44.28-2.42,1-2.84,3.12-4.09H318l-5.19,2.5h5.29v42.71c0,1.38-.27,1.59-1.86,3.66h12.24L331,107.3C329.83,107.15,328.65,107.09,327.47,107Z"/><path class="cls-8" d="M355.62,107.59c-.75.41-1.51.89-2.26,1.23a16,16,0,0,1-6.67,1.31,14.69,14.69,0,0,1-9.14-2.68c-4.87-3.44-7-9.35-7-14.5,0-10.65,8.66-15.87,15.73-15.87A13.32,13.32,0,0,1,353.36,79a11.32,11.32,0,0,1,4.8,6.79L342,92.33l-5.29.42c1.72,8.72,7.63,13.8,14.16,13.8a17.73,17.73,0,0,0,8.38-2.4Zm-6.45-20.48c1.3-.48,2-.89,2-1.85,0-2.75-3.09-5.91-6.8-5.91-2.76,0-7.9,2.13-7.9,9.55,0,1.16.13,2.4.2,3.64Z"/><path class="cls-8" d="M362.26,77.55v4.54h-.56V77.55h-1.5v-.47h3.55v.47Z"/><path class="cls-8" d="M368.44,82.09V77.51h0L367,82.09h-.43l-1.41-4.58h0v4.58h-.5v-5h.85l1.28,4h0l1.25-4h.87v5Z"/><path class="cls-9" d="M159.22,33.22h-3.84V31.16h10.18v2.06h-3.88V44.64h-2.46Z"/><path class="cls-9" d="M175.48,38.66H170.4v4h5.68v2h-8.14V31.16h7.84v2H170.4v3.48h5.08ZM175.14,28l-2.5,2.4h-2l1.76-2.4Z"/><path class="cls-9" d="M179,31.16h2.46V42.58H187v2.06h-8Z"/><path class="cls-9" d="M197.24,38.66h-5.08v4h5.68v2h-8.15V31.16h7.85v2h-5.38v3.48h5.08ZM196.9,28l-2.5,2.4h-2l1.76-2.4Z"/><path class="cls-9" d="M210.46,44.26a8.92,8.92,0,0,1-3.5.6c-4.28,0-6.88-2.68-6.88-6.8,0-4.44,3.1-7.12,7.22-7.12a7.63,7.63,0,0,1,3.26.6l-.52,2A6.63,6.63,0,0,0,207.4,33c-2.74,0-4.72,1.72-4.72,5,0,3,1.72,4.86,4.7,4.86a7.46,7.46,0,0,0,2.68-.48Z"/><path class="cls-9" d="M215.82,31.16v5.4h5.7v-5.4H224V44.64h-2.46V38.7h-5.7v5.94h-2.47V31.16Z"/><path class="cls-9" d="M230.3,40.82l-1.16,3.82h-2.55l4.33-13.48h3.14l4.38,13.48h-2.66l-1.22-3.82ZM234.16,39l-1.06-3.32c-.26-.82-.48-1.74-.68-2.52h0c-.2.78-.42,1.72-.64,2.52l-1,3.32Z"/><path class="cls-9" d="M241.11,31.36a21.24,21.24,0,0,1,3.72-.3A6.29,6.29,0,0,1,249,32.14a3.42,3.42,0,0,1,1.16,2.72,3.54,3.54,0,0,1-2.46,3.36v.06a3.34,3.34,0,0,1,1.88,2.6,34.18,34.18,0,0,0,1.06,3.76h-2.52a17.18,17.18,0,0,1-.9-3.18c-.4-1.76-1-2.32-2.42-2.36h-1.25v5.54h-2.44Zm2.44,5.94H245c1.66,0,2.68-.88,2.68-2.22s-1-2.16-2.62-2.16a7.12,7.12,0,0,0-1.53.12Z"/><path class="cls-9" d="M264.1,44a13.32,13.32,0,0,1-4.32.76,7.34,7.34,0,0,1-5.31-1.8,6.76,6.76,0,0,1-1.88-5c0-4.28,3-7,7.51-7a8.94,8.94,0,0,1,3.58.64l-.54,2a7,7,0,0,0-3.06-.58c-2.88,0-4.91,1.7-4.91,4.84s1.88,4.88,4.69,4.88a5.15,5.15,0,0,0,1.86-.26V39.14h-2.38V37.2h4.76Z"/><path class="cls-9" d="M275,38.66h-5.09v4h5.69v2h-8.15V31.16h7.85v2h-5.39v3.48H275Z"/><path class="cls-9" d="M278.51,31.36a21.15,21.15,0,0,1,3.72-.3,6.29,6.29,0,0,1,4.17,1.08,3.42,3.42,0,0,1,1.16,2.72,3.54,3.54,0,0,1-2.46,3.36v.06a3.34,3.34,0,0,1,1.88,2.6A34.18,34.18,0,0,0,288,44.64h-2.52a17.18,17.18,0,0,1-.9-3.18c-.4-1.76-1-2.32-2.42-2.36H281v5.54h-2.44ZM281,37.3h1.47c1.66,0,2.68-.88,2.68-2.22s-1-2.16-2.62-2.16A7.12,7.12,0,0,0,281,33Z"/><path class="cls-9" d="M295.59,42a6.75,6.75,0,0,0,3.26.86c1.56,0,2.44-.74,2.44-1.84s-.68-1.62-2.38-2.24c-2.24-.8-3.66-2-3.66-3.92,0-2.22,1.84-3.88,4.78-3.88a7.07,7.07,0,0,1,3.23.68l-.58,2A5.93,5.93,0,0,0,300,33c-1.56,0-2.22.82-2.22,1.62,0,1,.78,1.52,2.58,2.22,2.35.88,3.47,2.06,3.47,4,0,2.18-1.65,4.06-5.11,4.06A7.77,7.77,0,0,1,295,44Z"/><path class="cls-9" d="M309.25,31.16V39c0,2.64,1.1,3.86,2.76,3.86s2.84-1.22,2.84-3.86V31.16h2.47v7.7c0,4.16-2.14,6-5.39,6s-5.14-1.74-5.14-6V31.16Z"/><path class="cls-9" d="M320.93,31.36a21.15,21.15,0,0,1,3.72-.3,6.26,6.26,0,0,1,4.16,1.08A3.4,3.4,0,0,1,330,34.86a3.54,3.54,0,0,1-2.46,3.36v.06a3.36,3.36,0,0,1,1.88,2.6,34.18,34.18,0,0,0,1.06,3.76h-2.52a16.9,16.9,0,0,1-.91-3.18c-.4-1.76-1-2.32-2.42-2.36h-1.24v5.54h-2.44Zm2.44,5.94h1.46c1.66,0,2.69-.88,2.69-2.22s-1-2.16-2.63-2.16a7.07,7.07,0,0,0-1.52.12Z"/></g></g></svg>