<svg xmlns="http://www.w3.org/2000/svg" viewBox="0 0 521.71 170.66"><defs><style>.cls-1{fill:#fff;}</style></defs><title>Fichier 1</title><g id="Calque_2" data-name="Calque 2"><g id="Layer_1" data-name="Layer 1"><path d="M521.71,147.59a23.06,23.06,0,0,1-23.06,23.07H23.06A23.07,23.07,0,0,1,0,147.59V23.06A23.07,23.07,0,0,1,23.06,0H498.65a23.06,23.06,0,0,1,23.06,23.06Z"/><path class="cls-1" d="M126.07,117.46a84.13,84.13,0,0,1-7.64,14.27c-5,7.55-12,17-20.62,17-7.7.07-9.67-5-20.12-5s-12.64,5.05-20.34,5c-8.66-.09-15.29-8.58-20.25-16.13-13.88-21.12-15.32-45.91-6.77-59.09C36.41,64.21,46,58.73,55,58.73s15,5,22.55,5c7.36,0,11.85-5,22.47-5,8,0,16.53,4.37,22.59,11.93C102.79,81.53,106,109.88,126.07,117.46Z"/><path class="cls-1" d="M92,50.28c3.86-5,6.79-11.94,5.73-19.09-6.3.43-13.67,4.44-18,9.67-3.91,4.75-7.13,11.78-5.87,18.62C80.74,59.7,87.86,55.59,92,50.28Z"/><path class="cls-1" d="M193.13,73.25l-19.88,58.51h9.1l5.94-18h19.24l6.1,18H223L203,73.25Zm4.71,9.62c.67,2.61,1.4,5.33,2.33,8.26l5.35,15.51H190.28L195.56,91C196.37,88.49,197.13,85.76,197.84,82.87Z"/><path class="cls-1" d="M248.7,88.42c-6,0-10.85,2.33-14.07,6.75l-.35-5.82h-8.1l0,.75c.24,3.62.34,7.61.34,13.34v45.09h8.85v-21a15.53,15.53,0,0,0,12.1,5.2,18.26,18.26,0,0,0,13.41-5.7c3.88-4.1,5.93-10,5.93-17,0-6.22-1.78-11.59-5.15-15.55A16.84,16.84,0,0,0,248.7,88.42Zm-2.2,7.33c7.89,0,11.42,7.31,11.42,14.55,0,9.34-4.5,15.15-11.76,15.15a10.72,10.72,0,0,1-10.42-8.22,11,11,0,0,1-.32-2.86v-7.12a14.12,14.12,0,0,1,.28-2.19c.05-.24.09-.48.13-.71A11.2,11.2,0,0,1,246.5,95.75Z"/><path class="cls-1" d="M294.28,88.42c-6,0-10.85,2.33-14.07,6.75l-.35-5.82h-8.09l0,.75c.24,3.62.34,7.61.34,13.34v45.09H281v-21a15.53,15.53,0,0,0,12.1,5.2,18.3,18.3,0,0,0,13.42-5.7c3.87-4.1,5.92-10,5.92-17,0-6.22-1.78-11.59-5.15-15.55A16.84,16.84,0,0,0,294.28,88.42Zm-2.2,7.33c7.89,0,11.42,7.31,11.42,14.55,0,9.34-4.51,15.15-11.76,15.15a10.72,10.72,0,0,1-10.42-8.22,11,11,0,0,1-.32-2.86v-7.12a13.08,13.08,0,0,1,.29-2.19l.12-.71A11.2,11.2,0,0,1,292.08,95.75Z"/><path class="cls-1" d="M351.39,98c-8.26-3.2-10.91-5.71-10.91-10.36,0-3.91,3.11-7.86,10.06-7.86a20.07,20.07,0,0,1,10.39,2.61l.75.46,2.5-7.39-.5-.29c-1.48-.87-5.7-2.89-12.88-2.89-11.29,0-19.18,6.67-19.18,16.2,0,7.7,4.94,13.07,15.54,16.93,7.51,2.8,10.31,5.68,10.31,10.61,0,5.58-4.32,9-11.25,9a24.23,24.23,0,0,1-12.76-3.62l-.77-.49-2.38,7.55.44.29c3.34,2.23,9.63,3.85,15,3.85,15.21,0,20.61-9.28,20.61-17.22C366.32,107.28,362,102.23,351.39,98Z"/><path class="cls-1" d="M382.25,79.27,373.57,82v7.35h-6.36v7.08h6.36V118.1c0,5.23,1,8.91,3.06,11.23a11.38,11.38,0,0,0,8.57,3.36,20.71,20.71,0,0,0,6.84-1.06l.5-.17-.43-7.09-.85.26a13.39,13.39,0,0,1-4.11.48c-3.43,0-4.9-2.17-4.9-7.27V96.43h10.68V89.35H382.25Z"/><path class="cls-1" d="M414.86,88.42c-12.38,0-21,9.24-21,22.47,0,12.84,8.37,21.8,20.36,21.8h.08c10.13,0,21-7.06,21-22.56,0-6.3-1.95-11.71-5.64-15.66A19.72,19.72,0,0,0,414.86,88.42Zm-.25,7c8,0,11.59,7.76,11.59,15,0,8.87-4.95,15.31-11.76,15.31h-.09c-6.71,0-11.58-6.33-11.58-15.06C402.77,103.06,406.43,95.41,414.61,95.41Z"/><path class="cls-1" d="M462.41,88.83l-.53-.13a8.25,8.25,0,0,0-2.2-.28,12.64,12.64,0,0,0-11.1,7.13l-.26-6.2h-7.94l.05.75c.24,3.5.34,7.43.34,12.74l-.09,28.92h8.85V109.2a22.74,22.74,0,0,1,.25-3.43c1-5.42,4.65-8.92,9.31-8.92a21.21,21.21,0,0,1,2.38.15l.94.09Z"/><path class="cls-1" d="M482.31,88.34c-11.78,0-20,9.41-20,22.89,0,13,8.19,21.37,20.86,21.37a34.11,34.11,0,0,0,14-2.68l.53-.24-1.7-6.6-.74.3a27.45,27.45,0,0,1-11.09,2c-3.85,0-12.72-1.27-13.26-12.83l28.57.08.12-.56a19.79,19.79,0,0,0,.26-3.7C499.87,99.12,495.27,88.34,482.31,88.34Zm-.59,6.73a8.7,8.7,0,0,1,6.5,2.48c2.55,2.59,3,6.41,3,8.24H471.08C471.91,100.68,475.1,95.07,481.72,95.07Z"/><path class="cls-1" d="M153.36,32.78h-7.87V28.55h20.87v4.23h-8V56.19h-5Z"/><path class="cls-1" d="M173.08,47.62c.12,3.61,2.91,5.16,6.15,5.16a16,16,0,0,0,5.54-.9l.73,3.45a17.89,17.89,0,0,1-7,1.27c-6.47,0-10.29-4-10.29-10.09,0-5.53,3.36-10.74,9.76-10.74s8.61,5.33,8.61,9.72a12.7,12.7,0,0,1-.16,2.13Zm8.77-3.53c.05-1.84-.77-4.88-4.14-4.88-3.11,0-4.42,2.83-4.63,4.88Zm2.26-16.52-5,6.07h-3.49l3.57-6.07Z"/><path class="cls-1" d="M194,27.08h5V56.19h-5Z"/><path class="cls-1" d="M211.33,47.62c.13,3.61,2.91,5.16,6.15,5.16a16,16,0,0,0,5.54-.9l.74,3.45a17.93,17.93,0,0,1-7,1.27c-6.48,0-10.3-4-10.3-10.09,0-5.53,3.37-10.74,9.76-10.74s8.61,5.33,8.61,9.72a12.7,12.7,0,0,1-.16,2.13Zm8.78-3.53c0-1.84-.78-4.88-4.14-4.88-3.12,0-4.43,2.83-4.64,4.88Zm2.25-16.52-5,6.07h-3.49l3.57-6.07Z"/><path class="cls-1" d="M246.88,55.57a14.46,14.46,0,0,1-5.66,1c-6.23,0-10.29-4-10.29-10.21,0-6,4.1-10.62,11.11-10.62a13.49,13.49,0,0,1,4.88.9l-.9,3.82a8.3,8.3,0,0,0-3.81-.78c-3.86,0-6.15,2.82-6.11,6.47,0,4.1,2.66,6.44,6.11,6.44a10,10,0,0,0,4-.78Z"/><path class="cls-1" d="M253.89,27.08h5V38.93H259a6.49,6.49,0,0,1,2.5-2.26,7.12,7.12,0,0,1,3.48-.9c3.4,0,7,2.26,7,8.65V56.19h-5V45c0-2.87-1.07-5.08-3.86-5.08a4.2,4.2,0,0,0-3.93,2.83,4.37,4.37,0,0,0-.21,1.52v12h-5Z"/><path class="cls-1" d="M296.12,51.39a26.53,26.53,0,0,0,.33,4.8H291.9L291.53,54h-.12a7.3,7.3,0,0,1-5.91,2.67,5.92,5.92,0,0,1-6.27-6c0-5,4.47-7.58,11.85-7.54v-.33c0-1.31-.54-3.48-4.06-3.48a10.56,10.56,0,0,0-5.37,1.47l-1-3.28a14.42,14.42,0,0,1,7.22-1.76c6.4,0,8.24,4.06,8.24,8.45Zm-4.92-5c-3.57,0-7,.7-7,3.73A2.65,2.65,0,0,0,287.1,53a4.14,4.14,0,0,0,4-2.75,3.44,3.44,0,0,0,.12-1.1Z"/><path class="cls-1" d="M304.73,42.66c0-2.71,0-4.68-.16-6.44h4.34l.21,3.77h.12a6,6,0,0,1,5.49-4.22,5.38,5.38,0,0,1,1.19.12v4.72a8.25,8.25,0,0,0-1.51-.12,4.43,4.43,0,0,0-4.51,3.81,8,8,0,0,0-.13,1.52V56.19h-5Z"/><path class="cls-1" d="M340.36,53.28c0,4.18-.86,7.17-2.95,9.06s-5,2.42-7.71,2.42a14.65,14.65,0,0,1-7-1.6l1.11-3.81a12.14,12.14,0,0,0,5.82,1.51c3.28,0,5.74-1.72,5.74-6V53.11h-.08a6.69,6.69,0,0,1-5.83,3c-5,0-8.48-4.1-8.48-9.76,0-6.56,4.26-10.54,9.06-10.54a6.24,6.24,0,0,1,5.78,3.12h.08l.21-2.67h4.38c-.08,1.35-.16,3-.16,5.74Zm-5-9.06a4.82,4.82,0,0,0-.17-1.36,4.19,4.19,0,0,0-4.1-3.24c-2.83,0-4.92,2.46-4.92,6.52,0,3.41,1.72,6.15,4.88,6.15a4.29,4.29,0,0,0,4.1-3.07,6.27,6.27,0,0,0,.21-1.77Z"/><path class="cls-1" d="M352.62,47.62c.12,3.61,2.91,5.16,6.15,5.16a15.93,15.93,0,0,0,5.53-.9l.74,3.45a17.89,17.89,0,0,1-7,1.27c-6.48,0-10.29-4-10.29-10.09,0-5.53,3.36-10.74,9.76-10.74s8.61,5.33,8.61,9.72a12.47,12.47,0,0,1-.17,2.13Zm8.77-3.53c0-1.84-.78-4.88-4.14-4.88-3.12,0-4.43,2.83-4.63,4.88Z"/><path class="cls-1" d="M373.49,42.66c0-2.71-.05-4.68-.17-6.44h4.35l.2,3.77H378a6,6,0,0,1,5.49-4.22,5.45,5.45,0,0,1,1.19.12v4.72a8.28,8.28,0,0,0-1.52-.12,4.43,4.43,0,0,0-4.51,3.81,8.93,8.93,0,0,0-.12,1.52V56.19h-5Z"/><path class="cls-1" d="M421.54,27.08V50.57c0,2,.08,4.27.16,5.62h-4.47L417,53h-.09a7.15,7.15,0,0,1-6.47,3.61c-4.8,0-8.57-4.06-8.57-10.21,0-6.68,4.14-10.66,8.94-10.66,2.74,0,4.71,1.11,5.61,2.58h.08V27.08Zm-5.05,17.46a7.7,7.7,0,0,0-.12-1.35A4.42,4.42,0,0,0,412,39.66c-3.24,0-5,2.87-5,6.57s1.81,6.35,5,6.35A4.45,4.45,0,0,0,416.33,49a5.71,5.71,0,0,0,.16-1.47Z"/><path class="cls-1" d="M445.73,51.39a26.53,26.53,0,0,0,.33,4.8H441.5L441.14,54H441a7.29,7.29,0,0,1-5.9,2.67,5.92,5.92,0,0,1-6.27-6c0-5,4.46-7.58,11.84-7.54v-.33c0-1.31-.53-3.48-4.05-3.48a10.63,10.63,0,0,0-5.38,1.47l-1-3.28a14.42,14.42,0,0,1,7.22-1.76c6.39,0,8.24,4.06,8.24,8.45Zm-4.92-5c-3.57,0-7,.7-7,3.73A2.65,2.65,0,0,0,436.71,53a4.12,4.12,0,0,0,4-2.75,3.19,3.19,0,0,0,.13-1.1Z"/><path class="cls-1" d="M454.34,42.17c0-2.3-.09-4.23-.17-6h4.39l.25,3h.12a7.33,7.33,0,0,1,6.39-3.44c3.49,0,7.1,2.26,7.1,8.57V56.19h-5.05V44.91c0-2.87-1.06-5-3.81-5a4.23,4.23,0,0,0-3.93,3,4.56,4.56,0,0,0-.25,1.6V56.19h-5Z"/><path class="cls-1" d="M480.86,51.51A10.91,10.91,0,0,0,486,53c2.21,0,3.2-.94,3.2-2.25s-.83-2-3.29-2.92c-3.89-1.31-5.49-3.44-5.49-5.82,0-3.52,2.91-6.23,7.54-6.23A11.42,11.42,0,0,1,493.24,37l-1,3.53A8.73,8.73,0,0,0,488,39.34c-1.81,0-2.79.9-2.79,2.13s.94,1.84,3.48,2.79c3.65,1.27,5.29,3.11,5.33,6.07,0,3.64-2.83,6.27-8.11,6.27a12.87,12.87,0,0,1-6.07-1.4Z"/><path class="cls-1" d="M154.8,131.76h-9.64V73.3h9.64Z"/><path class="cls-1" d="M174,73.63,165.63,91h-4.28l5.12-17.34Z"/></g></g></svg>