<svg xmlns="http://www.w3.org/2000/svg" viewBox="0 0 13.724 24"><defs><style>.a{fill:#fff}</style></defs><path class="a" d="M13.135 11.11a.594.594 0 0 0-.594.594v2.508a5.68 5.68 0 0 1-11.356 0v-2.513a.594.594 0 1 0-1.18 0v2.508a6.871 6.871 0 0 0 6.27 6.834v1.768H4.357a.594.594 0 1 0 0 1.187h5.016a.594.594 0 1 0 0-1.187H7.455v-1.764a6.871 6.871 0 0 0 6.27-6.834v-2.512a.594.594 0 0 0-.589-.594z"/><path class="a" d="M6.865 18.391a4.18 4.18 0 0 0 4.18-4.18V4.18a4.18 4.18 0 1 0-8.359 0v10.031a4.18 4.18 0 0 0 4.18 4.18z"/></svg>