<svg xmlns="http://www.w3.org/2000/svg" viewBox="0 0 30 30"><defs><style>.a{fill:#fff}</style></defs><path d="M0 0h30v30H0z"/><path class="a" d="M5.7 10.991a.7.7 0 0 0 .7-.7V7.324l4.479 4.485a.7.7 0 0 0 .985-.985l-4.486-4.48h2.97a.7.7 0 1 0 0-1.4H5.7a.7.7 0 0 0-.7.7v4.65a.7.7 0 0 0 .7.697zm18.603 7.91a.7.7 0 0 0-.7.7v2.97l-4.624-4.624a.7.7 0 1 0-.985.985l4.624 4.624h-2.97a.7.7 0 0 0 0 1.393H24.3a.7.7 0 0 0 .7-.7v-4.651a.7.7 0 0 0-.697-.697zm-13.286-.958l-4.622 4.624v-2.97a.7.7 0 1 0-1.393 0v4.652a.7.7 0 0 0 .7.7h4.646a.7.7 0 0 0 0-1.393h-2.97l4.624-4.624a.7.7 0 1 0-.985-.985zM24.304 4.944h-4.652a.7.7 0 0 0 0 1.393h2.97l-4.486 4.486a.7.7 0 0 0 .985.985l4.486-4.486v2.972a.7.7 0 0 0 1.393 0v-4.65a.7.7 0 0 0-.696-.7z"/></svg>