<svg xmlns="http://www.w3.org/2000/svg" viewBox="0 0 30.173 21.232"><defs><style>.a{fill:#b00}</style></defs><path class="a" d="M29 1.822C27.911.527 25.9-.001 22.06-.001H8.116c-3.928 0-5.973.562-7.058 1.941C0 3.282 0 5.264 0 8.004v5.224c0 5.309 1.255 8.005 8.116 8.005h13.94c3.33 0 5.176-.466 6.37-1.609 1.224-1.172 1.747-3.085 1.747-6.4v-5.22c-.001-2.89-.082-4.882-1.173-6.182zm-9.626 9.516l-6.33 3.308a.973.973 0 0 1-1.424-.863v-6.6a.973.973 0 0 1 1.422-.864l6.33 3.287a.973.973 0 0 1 0 1.726z"/></svg>