<svg id="Calque_1" data-name="Calque 1" xmlns="http://www.w3.org/2000/svg" viewBox="0 0 234.04 31.17"><defs><style>.cls-1{fill:#221f20;}.cls-2{fill:none;stroke:#221f20;stroke-miterlimit:10;stroke-width:0.75px;}</style></defs><title>logo-fibd-raja-1</title><polygon class="cls-1" points="28.46 17.72 36.75 17.72 38.62 21.45 42.44 21.45 33.4 2.6 30.75 2.6 21.71 21.45 25.54 21.45 32.08 8.29 35.22 14.46 30.1 14.46 28.46 17.72"/><polygon class="cls-1" points="70.72 10.62 69.58 8.29 63.04 21.45 59.21 21.45 68.25 2.6 70.9 2.6 75.48 12.19 70.72 10.62"/><polygon class="cls-1" points="77.38 16.13 79.94 21.45 76.12 21.45 74.02 17.24 77.38 16.13"/><polygon class="cls-1" points="69.58 18.12 80.54 14.49 69.58 10.87 69.58 18.12"/><path class="cls-1" d="M225.56,38.86c0,4.09,3.8,7.41,7.9,7.41a7.72,7.72,0,0,0,7.77-7.41V26.93h-3.95V38.87A3.75,3.75,0,0,1,233.45,43a3.87,3.87,0,0,1-4-4.1Z" transform="translate(-182.98 -24.41)"/><rect class="cls-1" y="2.59" width="3.99" height="18.86"/><path class="cls-1" d="M188.1,30.16h5.45a2.84,2.84,0,0,1,0,5.68H188.1l9.38,10h5.26l-7-8.06a5.38,5.38,0,0,0,4.59-5.32A5.47,5.47,0,0,0,195,27H188.1Z" transform="translate(-182.98 -24.41)"/><polygon class="cls-1" points="0.02 23.55 0.02 28.45 3.28 28.45 3.28 27.38 1.22 27.38 1.22 23.55 0.02 23.55"/><rect class="cls-1" x="4.16" y="23.55" width="1.02" height="1.61"/><path class="cls-1" d="M191.1,49.82l-.44,1.31h.86Zm1,3-.22-.73h-1.51l-.24.73h-1.27l1.79-4.9h.93l1.78,4.9Z" transform="translate(-182.98 -24.41)"/><path class="cls-1" d="M196,49h-.68v1H196a.5.5,0,1,0,0-1m.59,3.82L195.71,51h-.41v1.82h-1.21V48H196a1.57,1.57,0,0,1,1.67,1.58,1.4,1.4,0,0,1-.8,1.28l1.06,2Z" transform="translate(-182.98 -24.41)"/><polygon class="cls-1" points="18 24.62 18 28.45 16.8 28.45 16.8 24.62 15.59 24.62 15.59 23.55 19.21 23.55 19.21 24.62 18 24.62"/><path class="cls-1" d="M207.29,49.31a.62.62,0,0,0-.58-.28h-.53v2.76h.53a.62.62,0,0,0,.58-.28c.09-.13.13-.26.13-1.1s0-1-.13-1.1m.82,3.07a1.81,1.81,0,0,1-1.32.48H205V48h1.82a1.81,1.81,0,0,1,1.32.48,2.41,2.41,0,0,1,.51,2,2.41,2.41,0,0,1-.51,2" transform="translate(-182.98 -24.41)"/><polygon class="cls-1" points="26.75 28.45 26.75 23.55 30.09 23.55 30.09 24.62 27.96 24.62 27.96 25.44 29.78 25.44 29.78 26.52 27.96 26.52 27.96 27.38 30.09 27.38 30.09 28.45 26.75 28.45"/><polygon class="cls-1" points="33.02 28.45 33.02 23.55 34.23 23.55 34.23 27.38 36.28 27.38 36.28 28.45 33.02 28.45"/><rect class="cls-1" x="37.16" y="23.55" width="1.02" height="1.61"/><polygon class="cls-1" points="39.34 28.45 39.34 23.55 42.68 23.55 42.68 24.62 40.55 24.62 40.55 25.44 42.37 25.44 42.37 26.52 40.55 26.52 40.55 27.38 42.68 27.38 42.68 28.45 39.34 28.45"/><polygon class="cls-1" points="47.18 28.45 47.18 26.1 46.48 27.31 45.71 27.31 45.01 26.1 45.01 28.45 43.81 28.45 43.81 23.55 44.99 23.55 46.09 25.71 47.2 23.55 48.38 23.55 48.38 28.45 47.18 28.45"/><path class="cls-1" d="M234.65,50.92h-.82v.86h.82a.4.4,0,0,0,.44-.43.4.4,0,0,0-.44-.43M234.59,49h-.76v.8h.76a.4.4,0,1,0,0-.8m.17,3.82h-2.13V48h2a1.37,1.37,0,0,1,1.56,1.42,1.17,1.17,0,0,1-.53,1,1.14,1.14,0,0,1,.6,1.07,1.39,1.39,0,0,1-1.53,1.44" transform="translate(-182.98 -24.41)"/><path class="cls-1" d="M239.19,49.82l-.44,1.31h.85Zm.95,3-.22-.73h-1.51l-.24.73h-1.26l1.78-4.9h.93l1.78,4.9Z" transform="translate(-182.98 -24.41)"/><polygon class="cls-1" points="59.2 28.45 59.2 23.55 60.4 23.55 60.4 27.38 62.46 27.38 62.46 28.45 59.2 28.45"/><polygon class="cls-1" points="63.44 28.45 63.44 23.55 64.65 23.55 64.65 27.38 66.7 27.38 66.7 28.45 63.44 28.45"/><path class="cls-1" d="M252.45,49.82,252,51.13h.85Zm1,3-.22-.73h-1.51l-.24.73h-1.26L252,48h.93l1.78,4.9Z" transform="translate(-182.98 -24.41)"/><path class="cls-1" d="M258.46,52.34a1.85,1.85,0,0,1-1.39.57,1.81,1.81,0,0,1-1.36-.56,2.49,2.49,0,0,1-.5-1.94,2.5,2.5,0,0,1,.5-1.94,1.77,1.77,0,0,1,1.36-.55,1.87,1.87,0,0,1,1.52.6l-.83.82a.87.87,0,0,0-.69-.35.6.6,0,0,0-.48.22c-.11.14-.18.31-.18,1.2s.07,1.07.18,1.21a.59.59,0,0,0,.48.21.58.58,0,0,0,.49-.19.77.77,0,0,0,.18-.54V51h-.67V50h1.87v.66a2.13,2.13,0,0,1-.48,1.64" transform="translate(-182.98 -24.41)"/><polygon class="cls-1" points="77.02 28.45 77.02 23.55 80.36 23.55 80.36 24.62 78.23 24.62 78.23 25.44 80.05 25.44 80.05 26.52 78.23 26.52 78.23 27.38 80.36 27.38 80.36 28.45 77.02 28.45"/><path class="cls-1" d="M299,25.15v2.61h3.11v.68H299v3.13h-.76v-7.1h4.41v.68Z" transform="translate(-182.98 -24.41)"/><path class="cls-1" d="M304,31.57v-7.1h4.41v.68h-3.66v2.51h3.11v.67h-3.11V30.9h3.66v.67Z" transform="translate(-182.98 -24.41)"/><path class="cls-1" d="M311.8,31.63a3.1,3.1,0,0,1-2.44-.93l.52-.52a2.45,2.45,0,0,0,1.94.78c1,0,1.68-.49,1.68-1.32a1.15,1.15,0,0,0-.34-.89,1.53,1.53,0,0,0-.93-.34l-.83-.13a2.59,2.59,0,0,1-1.31-.54,1.65,1.65,0,0,1-.54-1.32,2,2,0,0,1,2.28-2,2.84,2.84,0,0,1,2.11.78l-.48.49a2.24,2.24,0,0,0-1.66-.61,1.32,1.32,0,0,0-1.5,1.32,1,1,0,0,0,.32.82,2,2,0,0,0,1,.39l.78.12a2.16,2.16,0,0,1,1.29.49,1.78,1.78,0,0,1,.6,1.41C314.25,30.87,313.27,31.63,311.8,31.63Z" transform="translate(-182.98 -24.41)"/><path class="cls-1" d="M317.93,25.15v6.42h-.76V25.15h-2.06v-.68H320v.68Z" transform="translate(-182.98 -24.41)"/><path class="cls-1" d="M321.31,31.57v-7.1h.76v7.1Z" transform="translate(-182.98 -24.41)"/><path class="cls-1" d="M326.13,31.57h-.62l-2.33-7.1h.8l1.84,5.75,1.85-5.75h.79Z" transform="translate(-182.98 -24.41)"/><path class="cls-1" d="M333.36,31.57,332.8,30h-3.11l-.56,1.6h-.81l2.61-7.1h.64l2.6,7.1Zm-2.1-6-1.34,3.75h2.66Z" transform="translate(-182.98 -24.41)"/><path class="cls-1" d="M335.32,31.57v-7.1h.76V30.9h3.63v.67Z" transform="translate(-182.98 -24.41)"/><path class="cls-1" d="M343.53,31.57v-7.1h.75v7.1Z" transform="translate(-182.98 -24.41)"/><path class="cls-1" d="M350.87,31.57l-3.77-5.69v5.69h-.76v-7.1h.72l3.77,5.68V24.47h.76v7.1Z" transform="translate(-182.98 -24.41)"/><path class="cls-1" d="M355.73,25.15v6.42H355V25.15h-2.05v-.68h4.87v.68Z" transform="translate(-182.98 -24.41)"/><path class="cls-1" d="M359.12,31.57v-7.1h4.4v.68h-3.65v2.51H363v.67h-3.12V30.9h3.65v.67Z" transform="translate(-182.98 -24.41)"/><path class="cls-1" d="M369.18,31.57l-1.61-3.15h-1.71v3.15h-.76v-7.1h2.73a1.92,1.92,0,0,1,2.1,2,1.84,1.84,0,0,1-1.54,1.9l1.68,3.22Zm-1.42-6.42h-1.9v2.6h1.9a1.24,1.24,0,0,0,1.41-1.29A1.25,1.25,0,0,0,367.76,25.15Z" transform="translate(-182.98 -24.41)"/><path class="cls-1" d="M376.18,31.57l-3.77-5.69v5.69h-.76v-7.1h.72l3.77,5.68V24.47h.76v7.1Z" transform="translate(-182.98 -24.41)"/><path class="cls-1" d="M383.1,31.57l-.57-1.6h-3.11l-.56,1.6h-.81l2.61-7.1h.64l2.6,7.1Zm-2.11-6-1.33,3.75h2.65Z" transform="translate(-182.98 -24.41)"/><path class="cls-1" d="M386.54,25.15v6.42h-.76V25.15h-2v-.68h4.86v.68Z" transform="translate(-182.98 -24.41)"/><path class="cls-1" d="M389.92,31.57v-7.1h.76v7.1Z" transform="translate(-182.98 -24.41)"/><path class="cls-1" d="M396.77,30.9a2.62,2.62,0,0,1-3.63,0c-.67-.67-.67-1.37-.67-2.88s0-2.2.67-2.87a2.6,2.6,0,0,1,3.63,0c.67.67.67,1.37.67,2.87S397.44,30.23,396.77,30.9Zm-.59-5.3a1.72,1.72,0,0,0-1.23-.51,1.7,1.7,0,0,0-1.22.51c-.45.46-.5.94-.5,2.42s0,2,.5,2.43A1.7,1.7,0,0,0,395,31a1.72,1.72,0,0,0,1.23-.51c.45-.46.5-.94.5-2.43S396.63,26.06,396.18,25.6Z" transform="translate(-182.98 -24.41)"/><path class="cls-1" d="M403.75,31.57,400,25.88v5.69h-.76v-7.1H400l3.77,5.68V24.47h.75v7.1Z" transform="translate(-182.98 -24.41)"/><path class="cls-1" d="M410.67,31.57,410.1,30H407l-.57,1.6h-.8l2.61-7.1h.64l2.6,7.1Zm-2.1-6-1.34,3.75h2.65Z" transform="translate(-182.98 -24.41)"/><path class="cls-1" d="M412.63,31.57v-7.1h.76V30.9H417v.67Z" transform="translate(-182.98 -24.41)"/><path class="cls-1" d="M302.43,42.89a2.49,2.49,0,0,1-1.8.66H298.2v-7.1h2.43a2.49,2.49,0,0,1,1.8.66,3.77,3.77,0,0,1,.69,2.81C303.12,40.91,303.16,42.16,302.43,42.89Zm-.53-5.24a1.85,1.85,0,0,0-1.4-.52H299v5.74h1.54a1.88,1.88,0,0,0,1.4-.51,3.83,3.83,0,0,0,.47-2.44A3.32,3.32,0,0,0,301.9,37.65Z" transform="translate(-182.98 -24.41)"/><path class="cls-1" d="M304.91,43.55v-7.1h4.41v.68h-3.65v2.5h3.11v.68h-3.11v2.56h3.65v.68Z" transform="translate(-182.98 -24.41)"/><path class="cls-1" d="M313.39,43.55v-7.1h.76v6.42h3.62v.68Z" transform="translate(-182.98 -24.41)"/><path class="cls-1" d="M323.25,43.55l-.57-1.6h-3.11l-.57,1.6h-.8l2.61-7.1h.64l2.6,7.1Zm-2.11-6-1.34,3.75h2.66Z" transform="translate(-182.98 -24.41)"/><path class="cls-1" d="M330.45,43.55h-2.76v-7.1h2.67a1.88,1.88,0,0,1,2.1,1.89,1.63,1.63,0,0,1-1,1.56,1.72,1.72,0,0,1,1.16,1.69A1.88,1.88,0,0,1,330.45,43.55Zm-.15-6.42h-1.85v2.46h1.85c.79,0,1.4-.39,1.4-1.23S331.09,37.13,330.3,37.13Zm.08,3.14h-1.93v2.6h1.93a1.31,1.31,0,1,0,0-2.6Z" transform="translate(-182.98 -24.41)"/><path class="cls-1" d="M338.5,43.55l-.58-1.6h-3.1l-.57,1.6h-.8l2.61-7.1h.64l2.6,7.1Zm-2.11-6-1.34,3.75h2.66Z" transform="translate(-182.98 -24.41)"/><path class="cls-1" d="M345,43.55l-3.77-5.69v5.69h-.76v-7.1h.72l3.77,5.68V36.45h.76v7.1Z" transform="translate(-182.98 -24.41)"/><path class="cls-1" d="M352,42.89a2.49,2.49,0,0,1-1.8.66h-2.43v-7.1h2.43a2.49,2.49,0,0,1,1.8.66,3.74,3.74,0,0,1,.7,2.81C352.69,40.91,352.73,42.16,352,42.89Zm-.53-5.24a1.85,1.85,0,0,0-1.4-.52h-1.54v5.74h1.54a1.88,1.88,0,0,0,1.4-.51,3.83,3.83,0,0,0,.47-2.44A3.32,3.32,0,0,0,351.46,37.65Z" transform="translate(-182.98 -24.41)"/><path class="cls-1" d="M354.48,43.55v-7.1h4.4v.68h-3.65v2.5h3.12v.68h-3.12v2.56h3.65v.68Z" transform="translate(-182.98 -24.41)"/><path class="cls-1" d="M367.18,42.89a2.49,2.49,0,0,1-1.8.66H363v-7.1h2.43a2.49,2.49,0,0,1,1.8.66,3.74,3.74,0,0,1,.7,2.81C367.88,40.91,367.92,42.16,367.18,42.89Zm-.53-5.24a1.85,1.85,0,0,0-1.4-.52h-1.54v5.74h1.54a1.88,1.88,0,0,0,1.4-.51,3.83,3.83,0,0,0,.47-2.44A3.32,3.32,0,0,0,366.65,37.65Z" transform="translate(-182.98 -24.41)"/><path class="cls-1" d="M369.67,43.55v-7.1h4.4v.68h-3.65v2.5h3.11v.68h-3.11v2.56h3.65v.68Z" transform="translate(-182.98 -24.41)"/><path class="cls-1" d="M377.48,43.61a3.07,3.07,0,0,1-2.43-.94l.51-.51a2.47,2.47,0,0,0,1.94.77c1,0,1.67-.49,1.67-1.31a1.15,1.15,0,0,0-.34-.89,1.53,1.53,0,0,0-.92-.34l-.83-.13a2.59,2.59,0,0,1-1.31-.54,1.72,1.72,0,0,1-.54-1.33,2,2,0,0,1,2.28-2,2.84,2.84,0,0,1,2.11.78l-.49.49a2.22,2.22,0,0,0-1.65-.61,1.32,1.32,0,0,0-1.5,1.32,1,1,0,0,0,.32.81,2,2,0,0,0,1,.39l.78.12a2.29,2.29,0,0,1,1.29.5,1.78,1.78,0,0,1,.6,1.41C379.93,42.84,379,43.61,377.48,43.61Z" transform="translate(-182.98 -24.41)"/><path class="cls-1" d="M383.19,43.61a3.1,3.1,0,0,1-2.44-.94l.52-.51a2.47,2.47,0,0,0,1.94.77c1,0,1.67-.49,1.67-1.31a1.15,1.15,0,0,0-.34-.89,1.51,1.51,0,0,0-.93-.34l-.82-.13a2.59,2.59,0,0,1-1.31-.54,1.68,1.68,0,0,1-.54-1.33,2,2,0,0,1,2.28-2,2.84,2.84,0,0,1,2.11.78l-.49.49a2.24,2.24,0,0,0-1.65-.61,1.32,1.32,0,0,0-1.5,1.32,1,1,0,0,0,.32.81,2,2,0,0,0,1,.39l.78.12a2.26,2.26,0,0,1,1.29.5,1.78,1.78,0,0,1,.6,1.41C385.64,42.84,384.66,43.61,383.19,43.61Z" transform="translate(-182.98 -24.41)"/><path class="cls-1" d="M387.23,43.55v-7.1H388v7.1Z" transform="translate(-182.98 -24.41)"/><path class="cls-1" d="M394.57,43.55l-3.77-5.69v5.69h-.75v-7.1h.71l3.77,5.68V36.45h.76v7.1Z" transform="translate(-182.98 -24.41)"/><path class="cls-1" d="M397.35,43.55v-7.1h4.41v.68h-3.65v2.5h3.11v.68h-3.11v2.56h3.65v.68Zm2.26-7.79H399l.87-1.52h.86Z" transform="translate(-182.98 -24.41)"/><path class="cls-1" d="M403.34,43.55v-7.1h4.41v.68H404.1v2.5h3.11v.68H404.1v2.56h3.65v.68Z" transform="translate(-182.98 -24.41)"/><path class="cls-1" d="M302,55.53l-.42-1.26h-2.53l-.42,1.26h-1.45l2.58-7.11h1.09l2.59,7.11Zm-1.66-5-.9,2.58h1.77Z" transform="translate(-182.98 -24.41)"/><path class="cls-1" d="M308.56,55.53l-2.81-4.36v4.36h-1.39V48.42h1.24l2.82,4.36V48.42h1.38v7.11Z" transform="translate(-182.98 -24.41)"/><path class="cls-1" d="M315.84,54.78a2.67,2.67,0,0,1-2,.81,2.6,2.6,0,0,1-1.91-.78,2.06,2.06,0,0,1-.58-1.07,9.59,9.59,0,0,1-.12-1.76,9.71,9.71,0,0,1,.12-1.77,2,2,0,0,1,.58-1.07,2.59,2.59,0,0,1,1.91-.77,2.54,2.54,0,0,1,2.68,2.27h-1.4a1.21,1.21,0,0,0-1.28-1A1.13,1.13,0,0,0,313,50c-.26.33-.34.59-.34,2s.06,1.67.34,2a1.09,1.09,0,0,0,.88.37,1.28,1.28,0,0,0,1-.4,1.4,1.4,0,0,0,.32-1v-.27h-1.31V51.58h2.69v1A2.84,2.84,0,0,1,315.84,54.78Z" transform="translate(-182.98 -24.41)"/><path class="cls-1" d="M322.12,54.81a2.75,2.75,0,0,1-3.84,0c-.72-.72-.7-1.61-.7-2.83s0-2.12.7-2.84a2.78,2.78,0,0,1,3.84,0c.72.72.71,1.61.71,2.84S322.84,54.09,322.12,54.81Zm-1-4.83a1.16,1.16,0,0,0-.89-.38,1.14,1.14,0,0,0-.89.38c-.27.3-.34.63-.34,2s.07,1.69.34,2a1.14,1.14,0,0,0,.89.38,1.16,1.16,0,0,0,.89-.38c.27-.3.35-.63.35-2S321.36,50.28,321.09,50Z" transform="translate(-182.98 -24.41)"/><path class="cls-1" d="M326.75,55.59a2.47,2.47,0,0,1-2.61-2.5V48.42h1.38V53A1.24,1.24,0,1,0,328,53V48.42h1.37v4.67A2.47,2.47,0,0,1,326.75,55.59Z" transform="translate(-182.98 -24.41)"/><path class="cls-1" d="M330.91,55.53V48.42h1.39v5.87h3.22v1.24Z" transform="translate(-182.98 -24.41)"/><path class="cls-1" d="M336.65,55.53V48.42h4.68v1.24H338v1.67h2.8v1.24H338v1.72h3.29v1.24Zm3.09-7.79-.82-.91-.83.91h-1l1.32-1.69h1l1.32,1.69Z" transform="translate(-182.98 -24.41)"/><path class="cls-1" d="M347.74,55.53V51.39l-1.36,2.69h-.94l-1.36-2.69v4.14h-1.39V48.42h1.37l1.85,3.85,1.85-3.85h1.36v7.11Z" transform="translate(-182.98 -24.41)"/><path class="cls-1" d="M350.78,55.53V48.42h4.68v1.24h-3.29v1.67H355v1.24h-2.8v1.72h3.29v1.24Z" transform="translate(-182.98 -24.41)"/><line class="cls-2" x1="102.9" y1="10.48" x2="92.68" y2="20.7"/><line class="cls-2" x1="92.68" y1="10.48" x2="102.9" y2="20.7"/></svg>