<svg xmlns="http://www.w3.org/2000/svg" viewBox="0 0 170 40"><defs><style>.a{fill:#5ca2b3}.b,.c{fill:#fff}.b{font-size:14px;font-family:Roboto-Medium,Roboto;font-weight:500}</style></defs><path class="a" d="M0 0h170v40H0z"/><text class="b" transform="translate(96 25)"><tspan x="-46.758" y="0">05 45 95 16 84</tspan></text><path class="c" d="M43.522 25.216l-2.586-2.587a1.349 1.349 0 0 0-1.9.036l-1.3 1.3-.257-.143a12.967 12.967 0 0 1-3.139-2.265 13.04 13.04 0 0 1-2.272-3.14 34.847 34.847 0 0 0-.14-.251l.875-.873.43-.43a1.347 1.347 0 0 0 .035-1.9l-2.587-2.589a1.347 1.347 0 0 0-1.902.031l-.729.738.02.02a4.215 4.215 0 0 0-.6 1.06 4.393 4.393 0 0 0-.267 1.074c-.342 2.831.947 5.419 4.463 8.93 4.854 4.853 8.765 4.487 8.934 4.469a4.37 4.37 0 0 0 1.078-.271 4.2 4.2 0 0 0 1.056-.6l.016.014.738-.723a1.35 1.35 0 0 0 .034-1.9z"/></svg>