<svg xmlns="http://www.w3.org/2000/svg" viewBox="0 0 19.27 19.27"><defs><style>.a{fill:#fff;fill-rule:evenodd}</style></defs><path class="a" d="M9.635 1.713a29.542 29.542 0 0 1 3.854.107 4.965 4.965 0 0 1 1.82.321 3.76 3.76 0 0 1 1.82 1.82 4.965 4.965 0 0 1 .321 1.82c0 .963.107 1.285.107 3.854a29.542 29.542 0 0 1-.107 3.854 4.965 4.965 0 0 1-.321 1.82 3.76 3.76 0 0 1-1.82 1.82 4.965 4.965 0 0 1-1.82.321c-.963 0-1.285.107-3.854.107a29.542 29.542 0 0 1-3.854-.107 4.965 4.965 0 0 1-1.82-.321 3.76 3.76 0 0 1-1.82-1.82 4.965 4.965 0 0 1-.321-1.82c0-.963-.107-1.285-.107-3.854a29.542 29.542 0 0 1 .107-3.854 4.965 4.965 0 0 1 .321-1.82A3.845 3.845 0 0 1 2.89 2.89a1.81 1.81 0 0 1 1.071-.749 4.965 4.965 0 0 1 1.82-.321 29.542 29.542 0 0 1 3.854-.107m0-1.713a31.63 31.63 0 0 0-3.961.107 6.609 6.609 0 0 0-2.355.428 4.191 4.191 0 0 0-1.713 1.071A4.191 4.191 0 0 0 .535 3.319a4.878 4.878 0 0 0-.428 2.355A31.63 31.63 0 0 0 0 9.635 31.63 31.63 0 0 0 .107 13.6a6.609 6.609 0 0 0 .428 2.355 4.191 4.191 0 0 0 1.071 1.713 4.191 4.191 0 0 0 1.713 1.071 6.609 6.609 0 0 0 2.355.428 31.63 31.63 0 0 0 3.961.107 31.63 31.63 0 0 0 3.961-.107 6.609 6.609 0 0 0 2.355-.428 4.491 4.491 0 0 0 2.783-2.783 6.609 6.609 0 0 0 .428-2.355c0-1.071.107-1.392.107-3.961a31.63 31.63 0 0 0-.107-3.961 6.609 6.609 0 0 0-.428-2.355 4.191 4.191 0 0 0-1.071-1.713A4.191 4.191 0 0 0 15.951.535 6.609 6.609 0 0 0 13.6.107 31.63 31.63 0 0 0 9.635 0m0 4.71A4.845 4.845 0 0 0 4.71 9.635 4.924 4.924 0 1 0 9.635 4.71m0 8.136a3.154 3.154 0 0 1-3.212-3.211 3.154 3.154 0 0 1 3.212-3.212 3.154 3.154 0 0 1 3.212 3.212 3.154 3.154 0 0 1-3.212 3.212m5.138-9.527a1.178 1.178 0 1 0 1.178 1.18 1.188 1.188 0 0 0-1.178-1.178"/></svg>