<svg xmlns="http://www.w3.org/2000/svg" viewBox="0 0 20.808 16.646"><defs><style>.a{fill:#fff}</style></defs><path class="a" d="M10.4 6.242a3.121 3.121 0 1 0 3.121 3.121A3.121 3.121 0 0 0 10.4 6.242zm8.323-3.121h-2.5a.927.927 0 0 1-.822-.592L14.756.592A.927.927 0 0 0 13.941 0H6.867a.927.927 0 0 0-.822.592L5.4 2.529a.927.927 0 0 1-.822.592h-2.5A2.087 2.087 0 0 0 0 5.2v9.363a2.087 2.087 0 0 0 2.081 2.081h16.646a2.087 2.087 0 0 0 2.081-2.081V5.2a2.087 2.087 0 0 0-2.081-2.079zM10.4 14.565a5.2 5.2 0 1 1 5.2-5.2 5.2 5.2 0 0 1-5.2 5.2zM18 6.657a.728.728 0 1 1 .728-.728.728.728 0 0 1-.728.728z"/></svg>