<svg xmlns="http://www.w3.org/2000/svg" viewBox="0 0 18.159 14.73"><defs><style>.a{fill:#fff;fill-rule:evenodd}</style></defs><path class="a" d="M5.751 14.729A10.5 10.5 0 0 0 16.344 4.136v-.5a8.2 8.2 0 0 0 1.816-1.921 8.375 8.375 0 0 1-2.119.605A3.925 3.925 0 0 0 17.655.3a9.254 9.254 0 0 1-2.32.908A3.6 3.6 0 0 0 12.611 0a3.79 3.79 0 0 0-3.733 3.733 1.967 1.967 0 0 0 .1.807A10.431 10.431 0 0 1 1.311.605a3.864 3.864 0 0 0-.5 1.917 4.008 4.008 0 0 0 1.61 3.128 3.4 3.4 0 0 1-1.715-.5 3.687 3.687 0 0 0 3.027 3.632 3.11 3.11 0 0 1-1.009.1 1.717 1.717 0 0 1-.706-.1A3.822 3.822 0 0 0 5.549 11.4a7.617 7.617 0 0 1-4.641 1.614 2.793 2.793 0 0 1-.908-.1 9.523 9.523 0 0 0 5.751 1.816"/></svg>